<svg width="24" height="32" viewBox="0 0 24 32" fill="none" xmlns="http://www.w3.org/2000/svg">
<path d="M24 1.14286C24 0.839753 23.8736 0.549062 23.6485 0.334735C23.4235 0.120408 23.1183 0 22.8 0H1.2C0.88174 0 0.576516 0.120408 0.351472 0.334735C0.126428 0.549062 0 0.839753 0 1.14286V30.8571C0 31.1602 0.126428 31.4509 0.351472 31.6653C0.576516 31.8796 0.88174 32 1.2 32H22.8C23.1183 32 23.4235 31.8796 23.6485 31.6653C23.8736 31.4509 24 31.1602 24 30.8571V1.14286ZM7.2 28.5714H3.6V25.1429H7.2V28.5714ZM7.2 22.8571H3.6V19.4286H7.2V22.8571ZM7.2 17.1429H3.6V13.7143H7.2V17.1429ZM13.8 28.5714H10.2V25.1429H13.8V28.5714ZM13.8 22.8571H10.2V19.4286H13.8V22.8571ZM13.8 17.1429H10.2V13.7143H13.8V17.1429ZM20.4 28.5714H16.8V19.4286H20.4V28.5714ZM20.4 17.1429H16.8V13.7143H20.4V17.1429ZM20.4 10.2857H3.6V3.42857H20.4V10.2857Z" fill="#fff"/>
</svg>
