<svg width="14" height="15" viewBox="0 0 14 15" fill="none" xmlns="http://www.w3.org/2000/svg">
<path d="M7 0.5C3.13438 0.5 0 3.63438 0 7.5C0 11.3656 3.13438 14.5 7 14.5C10.8656 14.5 14 11.3656 14 7.5C14 3.63438 10.8656 0.5 7 0.5ZM9.75781 9.65156L9.31094 10.2609C9.30122 10.2742 9.28897 10.2854 9.2749 10.2939C9.26083 10.3025 9.24522 10.3081 9.22896 10.3106C9.2127 10.3131 9.19611 10.3123 9.18014 10.3083C9.16418 10.3044 9.14916 10.2973 9.13594 10.2875L6.55156 8.40312C6.53546 8.39156 6.52238 8.3763 6.5134 8.35863C6.50443 8.34095 6.49983 8.32138 6.5 8.30156V4C6.5 3.93125 6.55625 3.875 6.625 3.875H7.37656C7.44531 3.875 7.50156 3.93125 7.50156 4V7.86719L9.72969 9.47812C9.78594 9.51719 9.79844 9.59531 9.75781 9.65156Z" fill="white" fill-opacity="0.8"/>
</svg>
