<svg width="30" height="30" viewBox="0 0 30 30" fill="none" xmlns="http://www.w3.org/2000/svg">
<path d="M3.33333 6.66667C4.21739 6.66667 5.06523 6.31548 5.69036 5.69036C6.31548 5.06523 6.66667 4.21739 6.66667 3.33333C6.66667 2.44928 6.31548 1.60143 5.69036 0.976311C5.06523 0.351189 4.21739 0 3.33333 0C2.44928 0 1.60143 0.351189 0.976311 0.976311C0.351189 1.60143 0 2.44928 0 3.33333C0 4.21739 0.351189 5.06523 0.976311 5.69036C1.60143 6.31548 2.44928 6.66667 3.33333 6.66667ZM26.6667 6.66667C27.5507 6.66667 28.3986 6.31548 29.0237 5.69036C29.6488 5.06523 30 4.21739 30 3.33333C30 2.44928 29.6488 1.60143 29.0237 0.976311C28.3986 0.351189 27.5507 0 26.6667 0C25.7826 0 24.9348 0.351189 24.3096 0.976311C23.6845 1.60143 23.3333 2.44928 23.3333 3.33333C23.3333 4.21739 23.6845 5.06523 24.3096 5.69036C24.9348 6.31548 25.7826 6.66667 26.6667 6.66667ZM30 26.6667C30 27.5507 29.6488 28.3986 29.0237 29.0237C28.3986 29.6488 27.5507 30 26.6667 30C25.7826 30 24.9348 29.6488 24.3096 29.0237C23.6845 28.3986 23.3333 27.5507 23.3333 26.6667C23.3333 25.7826 23.6845 24.9348 24.3096 24.3096C24.9348 23.6845 25.7826 23.3333 26.6667 23.3333C27.5507 23.3333 28.3986 23.6845 29.0237 24.3096C29.6488 24.9348 30 25.7826 30 26.6667ZM3.33333 30C4.21739 30 5.06523 29.6488 5.69036 29.0237C6.31548 28.3986 6.66667 27.5507 6.66667 26.6667C6.66667 25.7826 6.31548 24.9348 5.69036 24.3096C5.06523 23.6845 4.21739 23.3333 3.33333 23.3333C2.44928 23.3333 1.60143 23.6845 0.976311 24.3096C0.351189 24.9348 0 25.7826 0 26.6667C0 27.5507 0.351189 28.3986 0.976311 29.0237C1.60143 29.6488 2.44928 30 3.33333 30ZM8.265 4.16667C8.40647 3.32846 8.3319 2.46803 8.04833 1.66667H15.8333C16.9384 1.66667 17.9982 2.10565 18.7796 2.88705C19.561 3.66846 20 4.72826 20 5.83333V10H24.1667C25.2717 10 26.3315 10.439 27.1129 11.2204C27.8943 12.0018 28.3333 13.0616 28.3333 14.1667V21.95C27.5318 21.667 26.6714 21.593 25.8333 21.735V14.1667C25.8333 13.7246 25.6577 13.3007 25.3452 12.9882C25.0326 12.6756 24.6087 12.5 24.1667 12.5H20V15.8333C20 16.9384 19.561 17.9982 18.7796 18.7796C17.9982 19.561 16.9384 20 15.8333 20H12.5V24.1667C12.5 24.6087 12.6756 25.0326 12.9882 25.3452C13.3007 25.6577 13.7246 25.8333 14.1667 25.8333H21.735C21.5935 26.6715 21.6681 27.532 21.9517 28.3333H14.1667C13.0616 28.3333 12.0018 27.8943 11.2204 27.1129C10.439 26.3315 10 25.2717 10 24.1667V20H5.83333C4.72826 20 3.66846 19.561 2.88705 18.7796C2.10565 17.9982 1.66667 16.9384 1.66667 15.8333V8.05C2.46818 8.333 3.32861 8.407 4.16667 8.265V15.8333C4.16667 16.2754 4.34226 16.6993 4.65482 17.0118C4.96738 17.3244 5.39131 17.5 5.83333 17.5H10V14.1667C10 13.0616 10.439 12.0018 11.2204 11.2204C12.0018 10.439 13.0616 10 14.1667 10H17.5V5.83333C17.5 5.39131 17.3244 4.96738 17.0118 4.65482C16.6993 4.34226 16.2754 4.16667 15.8333 4.16667H8.265ZM15.8333 17.5C16.2754 17.5 16.6993 17.3244 17.0118 17.0118C17.3244 16.6993 17.5 16.2754 17.5 15.8333V12.5H14.1667C13.7246 12.5 13.3007 12.6756 12.9882 12.9882C12.6756 13.3007 12.5 13.7246 12.5 14.1667V17.5H15.8333Z" fill="#1A1A1A"/>
</svg>
