<svg width="7" height="14" viewBox="0 0 7 14" fill="none" xmlns="http://www.w3.org/2000/svg">
<path d="M6.81815 3.66648V10.0301C6.81843 10.4679 6.73084 10.9015 6.5604 11.306C6.38996 11.7105 6.14 12.0781 5.82482 12.3877C5.50964 12.6973 5.13542 12.9428 4.72355 13.1103C4.31168 13.2777 3.87024 13.3638 3.42448 13.3636C2.97867 13.3639 2.53717 13.2779 2.12524 13.1104C1.71331 12.943 1.33903 12.6975 1.02379 12.3879C0.708556 12.0783 0.458552 11.7107 0.288076 11.3061C0.1176 10.9016 0.0299959 10.468 0.0302741 10.0301V3.06077C0.0301351 2.74235 0.0938915 2.42703 0.217899 2.13282C0.341906 1.83862 0.523734 1.5713 0.752988 1.34614C0.982243 1.12099 1.25443 0.942412 1.55399 0.820622C1.85355 0.698833 2.17462 0.636216 2.49883 0.636353C2.823 0.636284 3.14401 0.698951 3.44351 0.820771C3.74301 0.942592 4.01514 1.12118 4.24434 1.34633C4.47354 1.57148 4.65532 1.83877 4.77929 2.13294C4.90326 2.42711 4.967 2.74239 4.96686 3.06077V9.4244C4.95938 9.82137 4.79356 10.1996 4.50507 10.4777C4.21658 10.7559 3.82847 10.9117 3.42421 10.9117C3.01995 10.9117 2.63184 10.7559 2.34335 10.4777C2.05486 10.1996 1.88905 9.82137 1.88156 9.4244V3.66648H2.49883V9.4244C2.49883 9.54379 2.52278 9.662 2.56929 9.7723C2.61581 9.88259 2.684 9.98281 2.76995 10.0672C2.8559 10.1516 2.95795 10.2186 3.07025 10.2643C3.18255 10.31 3.30292 10.3335 3.42448 10.3335C3.54604 10.3335 3.6664 10.31 3.77871 10.2643C3.89101 10.2186 3.99305 10.1516 4.07901 10.0672C4.16496 9.98281 4.23314 9.88259 4.27966 9.7723C4.32618 9.662 4.35012 9.54379 4.35012 9.4244V3.06077C4.35012 2.57856 4.15508 2.1161 3.80789 1.77512C3.46071 1.43414 2.98983 1.24259 2.49883 1.24259C2.00784 1.24259 1.53696 1.43414 1.18978 1.77512C0.842593 2.1161 0.647546 2.57856 0.647546 3.06077V10.0301C0.647546 10.7534 0.940115 11.4471 1.46089 11.9586C1.98167 12.4701 2.68799 12.7574 3.42448 12.7574C4.16097 12.7574 4.86729 12.4701 5.38806 11.9586C5.90884 11.4471 6.20141 10.7534 6.20141 10.0301V3.66648H6.81815Z" fill="white"/>
</svg>
