<svg width="9" height="14" viewBox="0 0 9 14" fill="none" xmlns="http://www.w3.org/2000/svg">
<path d="M4.5 0C2.0142 0 0 1.95159 0 4.36898C0 8.54884 4.5 14 4.5 14C4.5 14 9 8.54797 9 4.36898C9 1.95247 6.9858 0 4.5 0ZM4.5 6.78637C3.85552 6.78637 3.23744 6.53731 2.78173 6.09397C2.32602 5.65064 2.07 5.04935 2.07 4.42239C2.07 3.79542 2.32602 3.19414 2.78173 2.7508C3.23744 2.30747 3.85552 2.05841 4.5 2.05841C5.14448 2.05841 5.76256 2.30747 6.21827 2.7508C6.67398 3.19414 6.93 3.79542 6.93 4.42239C6.93 5.04935 6.67398 5.65064 6.21827 6.09397C5.76256 6.53731 5.14448 6.78637 4.5 6.78637Z" fill="white"/>
</svg>
