<svg width="21" height="20" viewBox="0 0 21 20" fill="none" xmlns="http://www.w3.org/2000/svg">
<path d="M8.78192 11.7183C6.87295 9.80934 6.44192 7.90037 6.34468 7.13554C6.3175 6.92407 6.39028 6.71198 6.54157 6.56175L8.0864 5.01761C8.31365 4.7905 8.35397 4.43657 8.18364 4.16416L5.72399 0.344852C5.53554 0.0432134 5.14862 -0.0656509 4.83054 0.0934725L0.881918 1.95313C0.624697 2.07979 0.473403 2.35308 0.502608 2.6383C0.709504 4.60382 1.5664 9.43554 6.31468 14.1842C11.063 18.9328 15.894 19.7893 17.8605 19.9962C18.1458 20.0254 18.4191 19.8741 18.5457 19.6169L20.4054 15.6683C20.5639 15.3509 20.4557 14.965 20.1554 14.7762L16.3361 12.3173C16.0638 12.1468 15.7099 12.1868 15.4826 12.4138L13.9385 13.9586C13.7882 14.1099 13.5762 14.1827 13.3647 14.1555C12.5998 14.0583 10.6909 13.6273 8.78192 11.7183V11.7183Z" fill="#1A1A1A"/>
<path d="M16.3623 10.6896C15.9814 10.6896 15.6726 10.3809 15.6726 9.99996C15.6694 7.14466 13.3555 4.83078 10.5002 4.82755C10.1193 4.82755 9.81055 4.51878 9.81055 4.1379C9.81055 3.75701 10.1193 3.44824 10.5002 3.44824C14.117 3.45223 17.0479 6.3832 17.0519 9.99996C17.0519 10.3809 16.7432 10.6896 16.3623 10.6896Z" fill="#1A1A1A"/>
<path d="M19.8105 10.6897C19.4297 10.6897 19.1209 10.3809 19.1209 10C19.1156 5.24113 15.2591 1.38463 10.5002 1.37931C10.1193 1.37931 9.81055 1.07054 9.81055 0.689655C9.81055 0.308769 10.1193 0 10.5002 0C16.0205 0.00608134 20.4941 4.47967 20.5002 10C20.5002 10.1829 20.4275 10.3583 20.2982 10.4877C20.1689 10.617 19.9935 10.6897 19.8105 10.6897Z" fill="#1A1A1A"/>
</svg>
