<svg width="14" height="15" viewBox="0 0 14 15" fill="none" xmlns="http://www.w3.org/2000/svg">
<path d="M11.3168 9.16544C10.8466 9.0643 10.4746 9.2826 10.1453 9.47325C9.80797 9.66972 9.1666 10.19 8.79897 10.0568C6.91676 9.28187 5.14649 7.63442 4.38017 5.74466C4.24511 5.36918 4.76297 4.72374 4.95798 4.38246C5.14721 4.0521 5.361 3.67662 5.2635 3.20291C5.17538 2.77722 4.03565 1.32697 3.63263 0.93039C3.36684 0.668429 3.09455 0.52435 2.81503 0.501064C1.76414 0.455949 0.590462 1.85817 0.384617 2.19363C-0.131079 2.90893 -0.12819 3.86072 0.393284 5.01481C1.65002 8.11469 6.40323 12.7929 9.51474 14.0969C10.0889 14.3654 10.614 14.5 11.0857 14.5C11.5472 14.5 11.9581 14.3712 12.3113 14.1158C12.5778 13.9623 14.0375 12.7303 13.9993 11.6512C13.9761 11.3761 13.8324 11.101 13.5739 10.8347C13.1802 10.428 11.7393 9.25422 11.3168 9.16544Z" fill="#fff" fill-opacity="0.8"/>
</svg>
