<svg width="646" height="154" viewBox="0 0 646 154" fill="none" xmlns="http://www.w3.org/2000/svg">
<path d="M230.006 34.4875C225.649 40.5858 223.115 48.5263 223.053 56.2694C223.046 57.2348 223.077 58.202 223.147 59.144C223.587 65.0384 225.585 70.3836 228.776 74.1946C229.725 75.3285 230.769 76.3096 231.885 77.1363L231.061 76.8421C230.773 76.7043 230.479 76.5805 230.176 76.4753L218.052 72.2724C219.519 69.476 220.662 66.4571 221.414 63.3218C223.839 53.2087 222.097 42.8823 216.868 36.3745C214.014 32.8222 210.361 30.6095 206.16 29.8554L109.507 8.87133C110.403 7.19107 111.985 4.95321 114.633 3.15846C114.76 3.07189 114.888 2.9881 115.014 2.90711C118.173 0.89639 122.013 0.1945 125.825 0.929903L246.053 24.1407C240.056 24.7123 234.382 28.3614 230.007 34.4857L230.006 34.4875Z" fill="#FFE500"/>
<path d="M217.43 61.4879C219.075 55.3497 218.844 49.3473 216.744 43.6474C215.782 41.0335 214.43 38.7854 212.769 36.9841C212.824 37.0335 212.879 37.08 212.934 37.1303C213.064 37.2504 213.331 37.4998 213.649 37.8331C215.101 39.3495 216.333 41.2578 217.311 43.505C218.875 47.0992 220.421 53.1025 218.901 61.2897C218.275 64.6641 217.109 70.9439 211.854 76.7452C209.523 79.3182 204.067 85.3504 196.129 85.2591C194.517 85.2424 192.897 84.9678 191.314 84.4521C192.45 84.6922 193.711 84.8579 195.033 84.8579C195.075 84.8579 195.116 84.8579 195.158 84.8579C204.754 84.7825 214.42 72.7126 217.429 61.487L217.43 61.4879Z" fill="#2A2A2A"/>
<path d="M260.35 66.9058L266.936 68.9379C263.19 68.9798 259.499 70.2616 256.08 72.6903C257.68 70.97 259.112 69.0217 260.35 66.9058Z" fill="#FFE500"/>
<path d="M199.827 33.9634C203.532 33.9634 206.865 35.4556 209.515 38.3125C213.731 42.8571 215.598 50.253 214.509 58.0958C212.778 70.5529 204.075 80.5712 194.695 80.9026C191.032 81.031 187.658 79.6505 184.926 76.9081C181.031 72.9984 178.952 66.7949 179.222 59.8896C179.472 53.5176 181.724 47.0684 185.401 42.1962C187.491 39.4277 189.907 37.2988 192.496 35.8996C192.538 35.8931 192.578 35.8773 192.616 35.854C192.678 35.814 192.742 35.7768 192.806 35.7377C194.778 34.7211 196.846 34.1254 198.944 33.9932C199.241 33.9746 199.537 33.9652 199.83 33.9652L199.827 33.9634Z" fill="#2A2A2A"/>
<path d="M253.004 31.7823C257.038 35.935 258.881 42.9688 257.935 50.6003C256.43 62.7474 248.155 72.6288 239.491 72.6288C236.354 72.6288 233.466 71.32 231.138 68.8429C227.53 65.0039 225.7 58.914 226.121 52.1353C226.886 39.8001 234.755 29.0781 243.663 28.2356C244.043 28.1993 244.42 28.1816 244.792 28.1816C247.883 28.1816 250.703 29.4132 253.004 31.7814V31.7823Z" fill="#2A2A2A"/>
<path d="M252.669 69.5272C256.45 65.1892 259.411 59.5015 260.793 53.9227C262.273 47.9454 261.975 42.1637 259.907 36.7384C259.037 34.455 257.86 32.4889 256.437 30.8999C256.567 31.02 256.735 31.1792 256.927 31.3737C258.289 32.7533 259.458 34.5136 260.401 36.6062C261.94 40.0217 263.498 45.7699 262.178 53.7542C261.624 57.1016 260.594 63.333 255.593 69.0366C253.382 71.5584 248.205 77.4639 240.781 77.0432C239.316 76.9603 237.854 76.6299 236.433 76.0667C237.478 76.3469 238.64 76.5544 239.863 76.5973C239.976 76.601 240.09 76.6029 240.204 76.6029C244.268 76.6029 248.679 74.1025 252.669 69.5253V69.5272Z" fill="#2A2A2A"/>
<path d="M240.711 79.561C238.704 79.5275 236.801 79.0891 235.045 78.2997C235.011 78.2662 234.971 78.2382 234.924 78.2215L234.756 78.1619C230.492 76.1335 227.121 72.0106 225.268 66.5481C225.808 67.6494 226.438 68.6929 227.155 69.6647C227.88 70.6459 229.231 72.4732 231.656 74.0362C231.678 74.0502 231.777 74.1135 231.941 74.2094C234.64 76.3132 237.683 77.5159 240.742 77.689C241.009 77.7039 241.274 77.7114 241.535 77.7114C248.845 77.7114 253.882 71.9668 256.076 69.4637C261.199 63.6214 262.249 57.2718 262.813 53.861C264.16 45.7167 262.563 39.839 260.987 36.3417C260.013 34.1792 258.801 32.3556 257.386 30.9211C257.077 30.6074 256.817 30.3719 256.69 30.2593C254.36 28.1824 251.908 27.3288 250.601 26.9974L250.568 26.9658L250.469 26.9639C249.762 26.7936 247.969 26.4482 245.692 26.6465C242.923 26.8866 240.177 27.8846 237.753 29.5313C237.737 29.5425 237.723 29.5555 237.709 29.5685C231.15 33.4131 226.086 42.2538 225.475 52.0942C225.044 59.0498 226.936 65.3147 230.666 69.2831C233.118 71.8933 236.17 73.2729 239.49 73.2729C243.829 73.2729 248.201 70.9438 251.799 66.7138C255.414 62.4634 257.821 56.7682 258.576 50.6774C259.546 42.8542 257.635 35.6221 253.467 31.3307C250.816 28.6013 247.505 27.3074 243.88 27.5727C244.499 27.4387 245.123 27.3428 245.749 27.2888C247.964 27.0961 249.695 27.4387 250.348 27.5978C254.309 28.8797 257.489 32.2067 259.303 36.9672C261.324 42.2668 261.613 47.9182 260.165 53.7661C257.507 64.5002 248.53 76.2573 239.885 75.952C235.637 75.804 232.043 73.5158 232.007 73.4926C229.682 71.9929 228.377 70.2279 227.676 69.2794C225.552 66.4057 224.208 62.8804 223.79 59.0833C223.79 59.0805 223.789 59.0787 223.788 59.0759C223.72 58.158 223.69 57.215 223.697 56.2739C223.757 48.6592 226.248 40.8546 230.53 34.8616C234.965 28.6535 240.747 25.0556 246.81 24.7298C247.111 24.7139 247.41 24.7056 247.705 24.7056C252.246 24.7056 256.25 26.5981 259.33 30.2136C264.348 36.1052 266.148 45.8461 264.028 55.6344C262.563 62.3964 259.318 68.5626 254.891 72.9964C250.586 77.3083 245.556 79.6467 240.711 79.5592V79.561Z" fill="#FFE500"/>
<path d="M170.279 79.835L181.679 84.4941C181.588 84.4773 181.499 84.4596 181.408 84.4447C175.1 83.3714 168.481 85.1811 162.693 89.5441C162.7 89.5376 162.706 89.5321 162.714 89.5265C165.709 86.7813 168.275 83.4738 170.279 79.835Z" fill="#FFE500"/>
<path d="M245.038 110.331C245.799 111.666 246.724 112.903 247.811 114.014C248.788 115.014 249.864 115.866 251.001 116.563C251.018 116.579 251.037 116.594 251.058 116.606C251.111 116.636 251.162 116.663 251.214 116.692C253.418 117.995 255.844 118.707 258.237 118.707C258.28 118.707 258.323 118.707 258.366 118.707C266.956 118.616 275.834 110.943 279.475 100.462C282.299 92.3303 281.832 83.7652 278.255 78.1091C275.933 74.4368 272.445 72.1924 268.149 71.5845C268.131 71.5817 268.114 71.5799 268.096 71.5771C267.942 71.5557 267.789 71.5315 267.633 71.5147C267.621 71.5138 267.61 71.5147 267.598 71.5147C266.219 71.3639 264.764 71.4356 263.287 71.7465C262.087 71.9988 260.89 72.3981 259.73 72.9325C256.765 74.299 254.115 76.4791 251.855 79.4133C249.343 82.2935 247.36 85.9267 246.139 89.9547C244.078 96.7539 244.494 103.791 247.249 108.778C248.977 111.904 251.489 113.993 254.515 114.821C255.474 115.082 256.447 115.209 257.426 115.209C264.822 115.209 272.443 107.987 275.33 97.6355C277.206 90.9079 276.656 84.0147 273.859 79.1946C272.09 76.1468 269.565 74.1352 266.559 73.3765C264.016 72.7351 261.306 73.0358 258.65 74.2143C259.092 73.963 259.542 73.7293 260 73.518C261.116 73.0032 262.266 72.6197 263.42 72.3767C264.974 72.05 266.5 71.9988 267.929 72.2045C267.967 72.2092 268.004 72.2147 268.042 72.2194C269.903 72.5061 271.594 73.235 272.956 74.3735C278.851 79.3007 280.428 89.372 276.881 99.434C272.978 110.506 263.564 118.157 254.99 117.234C254.107 117.139 253.04 116.963 251.515 116.118C250.359 115.43 249.265 114.575 248.274 113.562C245.273 110.492 243.523 106.427 243.243 101.959C243.241 101.913 243.238 101.865 243.236 101.819C243.232 101.75 243.231 101.681 243.229 101.612C243.209 101.05 243.204 100.481 243.216 99.905C243.404 90.772 247.424 81.4129 253.708 75.4794C257.804 71.6115 262.433 69.5803 267.131 69.5803C267.33 69.5803 267.53 69.584 267.729 69.5915C272.293 69.7591 276.091 71.8591 278.711 75.6665C282.867 81.7033 283.519 91.1118 280.416 100.221C278.497 105.852 275.171 110.95 271.049 114.58C267.051 118.099 262.556 120.049 258.389 120.072C254.741 120.081 251.394 118.663 248.715 115.944C247.182 114.387 245.95 112.49 245.042 110.33L245.038 110.331Z" fill="#FFE500"/>
<path d="M169.618 69.4006C171.508 63.1785 171.415 56.9937 169.341 51.0164C168.336 48.1186 166.855 45.5884 164.992 43.5293C165.142 43.6671 165.292 43.8076 165.441 43.9538C165.754 44.2619 166.027 44.5561 166.201 44.7488C167.729 46.442 169.003 48.5189 169.989 50.9196C171.54 54.6953 173.011 60.9351 171.205 69.2228C170.461 72.6382 169.077 78.9953 163.348 84.9334C160.744 87.6321 154.647 93.9528 145.649 94.1595C143.631 94.2042 141.595 93.9323 139.605 93.3636C140.879 93.5953 142.302 93.7555 143.798 93.7555C144.052 93.7555 144.308 93.7508 144.567 93.7415C155.249 93.3403 166.145 80.831 169.618 69.4006Z" fill="#2A2A2A"/>
<path d="M228.281 76.5378C227.712 76.4066 227.132 76.3023 226.537 76.2279C221.958 75.6563 217.252 76.8469 212.98 79.6051C214.794 77.5898 216.396 75.3128 217.741 72.8506L224.878 75.3249L228.281 76.5388V76.5378Z" fill="#2A2A2A"/>
<path d="M134.439 41.9133C127.133 48.2825 122.186 58.3314 121.529 68.1383C121.449 69.3271 121.437 70.5438 121.491 71.7539C121.859 79.8946 125.214 87.5632 130.466 92.2689C130.601 92.3899 130.739 92.5044 130.877 92.6217L33.2295 49.9692C29.2006 48.2089 25.8494 45.1537 23.7949 41.3641C19.9122 34.2028 19.8703 25.6106 23.6851 18.9399C27.458 12.3417 34.5197 8.12948 42.5738 7.67055C44.3108 7.57094 46.0972 7.75247 47.8836 8.2086L152.614 34.9223C146.092 34.8088 139.835 37.2095 134.439 41.9152V41.9133Z" fill="#FFE500"/>
<path d="M136.102 95.1647C135.808 95.0167 135.509 94.8762 135.206 94.7412C133.671 93.9667 132.228 92.9809 130.896 91.7874C127.062 88.3525 124.264 83.2912 122.947 77.6221C123.315 78.9914 123.757 80.3077 124.278 81.5551C126.131 85.9945 129.669 89.6855 133.985 91.6813C134.015 91.6953 134.149 91.7567 134.372 91.8489C137.775 93.7898 141.509 94.8101 145.206 94.8101C145.36 94.8101 145.512 94.8082 145.666 94.8045C154.93 94.5922 161.156 88.1374 163.814 85.3811C169.67 79.3107 171.08 72.8373 171.837 69.3595C173.678 60.9089 172.174 54.5333 170.588 50.6729C169.573 48.2032 168.259 46.064 166.682 44.3149C166.502 44.1157 166.219 43.8103 165.894 43.491C163.187 40.8296 160.222 39.5301 158.648 38.9809L158.62 38.952L158.53 38.9399C157.662 38.6448 155.422 37.9858 152.504 37.9001C148.878 37.794 145.226 38.6216 141.947 40.2944C141.914 40.3111 141.886 40.3335 141.862 40.3586C138.518 41.6404 135.37 43.8764 132.64 46.9651C128.083 52.1213 125.26 59.2017 124.895 66.3909C124.512 73.9349 126.876 80.8281 131.38 85.3047C134.639 88.5424 138.821 90.2934 143.246 90.2934C143.567 90.2934 143.887 90.2841 144.209 90.2655C149.419 89.9685 154.59 87.3006 158.77 82.755C162.947 78.2114 165.744 72.209 166.644 65.8529C167.763 57.9552 165.914 50.4587 161.569 45.2839C158.315 41.4077 154.02 39.2722 149.148 39.1103C148.317 39.0823 147.489 39.114 146.666 39.1996C148.569 38.7128 150.532 38.4894 152.485 38.5461C155.346 38.6299 157.532 39.2816 158.35 39.5618C163.128 41.5594 166.815 45.7019 168.731 51.2267C170.758 57.0718 170.848 63.1235 168.999 69.2115C165.591 80.4297 154.95 92.7034 144.541 93.0954C139.099 93.3011 134.302 91.1163 134.254 91.0939C130.083 89.1651 126.663 85.597 124.872 81.3047C123.102 77.0645 122.216 72.0182 122.309 66.7102C122.309 66.7018 122.307 66.6944 122.307 66.6869C123.328 57.5289 128.051 48.3363 134.861 42.3982C140.014 37.9048 145.967 35.5608 152.172 35.5608C152.747 35.5608 153.323 35.5813 153.902 35.6213C155.111 35.706 156.282 35.8801 157.412 36.1435L157.553 36.1798C157.553 36.1798 157.561 36.1798 157.564 36.1817C162.399 37.3453 166.473 40.1333 169.484 44.3772C174.438 51.3617 175.796 61.3744 173.117 71.1599C172.339 74.0019 171.244 76.7098 169.892 79.2279C169.873 79.2521 169.856 79.2782 169.844 79.3079C169.841 79.3154 169.839 79.3228 169.837 79.3303C164.495 89.2108 155.193 96.1468 145.555 96.7714C142.184 96.9902 138.993 96.4391 136.101 95.1629L136.102 95.1647Z" fill="#FFE500"/>
<path d="M196.079 87.7547C188.191 87.9921 181.581 82.834 178.455 74.617C179.169 75.9501 180.019 77.1975 180.997 78.3359C181.839 79.3152 183.404 81.1388 186.142 82.6311C186.167 82.645 186.279 82.7046 186.463 82.7958C189.468 84.7945 192.806 85.8687 196.121 85.9041C196.178 85.9041 196.236 85.9041 196.293 85.9041C204.428 85.9041 209.96 79.7965 212.332 77.177C217.71 71.2398 218.897 64.8427 219.535 61.4049C221.085 53.0567 219.502 46.9221 217.902 43.2451C216.894 40.9272 215.62 38.9556 214.114 37.3842C213.783 37.0379 213.506 36.7773 213.37 36.6526C210.848 34.3309 208.156 33.3228 206.72 32.9197L206.691 32.8899L206.589 32.8834C205.809 32.673 203.812 32.229 201.256 32.3677C198.208 32.5334 195.183 33.5024 192.486 35.1687C189.702 36.6079 187.109 38.8532 184.883 41.8032C181.072 46.8514 178.832 53.2643 178.573 59.8596C178.296 66.9446 180.443 73.3222 184.465 77.3594C187.204 80.1093 190.568 81.5522 194.22 81.5522C194.385 81.5522 194.55 81.5494 194.716 81.5438C204.4 81.2012 213.373 70.9391 215.146 58.1803C216.262 50.1477 214.333 42.5553 209.987 37.8692C206.991 34.64 203.159 33.0733 198.899 33.3432C198.823 33.3479 198.745 33.3553 198.669 33.3619C199.537 33.1785 200.414 33.0593 201.291 33.0118C203.787 32.8759 205.723 33.3153 206.451 33.5136C210.801 35.0421 214.241 38.7182 216.137 43.867C218.19 49.4393 218.414 55.3104 216.805 61.3174C215.318 66.8655 212.208 72.5495 208.272 76.9107C204.055 81.5838 199.396 84.1754 195.153 84.2089C195.114 84.2089 195.075 84.2089 195.036 84.2089C190.449 84.2089 186.49 82.0828 186.451 82.0613C183.818 80.625 182.301 78.86 181.487 77.9124C178.98 74.994 177.335 71.3394 176.731 67.3458C176.731 67.3421 176.729 67.3393 176.728 67.3365C176.619 66.361 176.552 65.3575 176.53 64.3521C176.309 54.4735 180.052 44.5418 186.542 37.7845C191.201 32.9337 196.712 30.3151 202.48 30.2108C202.597 30.2089 202.715 30.208 202.832 30.208C203.952 30.208 205.04 30.3067 206.093 30.4994L207.112 30.7209C207.119 30.7228 207.125 30.7219 207.133 30.7228C210.722 31.6164 213.86 33.6625 216.362 36.7764C221.468 43.1325 223.162 53.2457 220.782 63.1689C217.499 76.8623 206.88 87.4307 196.078 87.7519L196.079 87.7547Z" fill="#FFE500"/>
<path d="M149.13 39.7554C153.812 39.9108 157.944 41.9662 161.078 45.6991C165.304 50.7333 167.102 58.0464 166.008 65.7626C164.196 78.5465 154.606 89.0264 144.175 89.6222C139.582 89.8838 135.2 88.1886 131.838 84.8477C127.463 80.5004 125.169 73.7859 125.542 66.4244C125.899 59.3785 128.664 52.4415 133.126 47.3933C137.499 42.4456 142.956 39.7451 148.551 39.7451C148.743 39.7451 148.936 39.7479 149.129 39.7544L149.13 39.7554Z" fill="#2A2A2A"/>
<path d="M186.077 37.3407C179.471 44.2191 175.661 54.323 175.885 64.3701C175.908 65.4015 175.977 66.432 176.089 67.4336C176.777 73.5635 179.175 79.0269 182.84 82.8166C183.943 83.9569 185.147 84.9334 186.427 85.7368L170.585 79.2624C171.919 76.7444 172.988 74.0783 173.74 71.3313C176.469 61.3614 175.076 51.1458 170.011 44.005C166.871 39.5777 162.608 36.6863 157.546 35.5125L68.7022 12.8509C69.7858 11.0049 71.7006 8.52226 74.847 6.6549C75.9008 6.02934 77.0262 5.51642 78.1908 5.12917C81.0449 4.18152 84.1773 4.03258 87.2521 4.70003L201.882 29.5864C196.153 29.8545 190.7 32.5262 186.078 37.3398L186.077 37.3407Z" fill="#FFE500"/>
<path d="M194.43 93.3886C193.261 91.4542 191.852 89.8028 190.234 88.4521C189.69 87.8266 189.067 87.2718 188.386 86.7989C190.646 87.8517 193.085 88.4074 195.589 88.4074C195.759 88.4074 195.928 88.4046 196.098 88.4C199.822 88.2892 203.634 86.9795 207.185 84.6401C201.628 90.9069 198.239 99.7094 198.161 108.47C198.161 108.492 198.161 108.515 198.161 108.537C198.161 108.54 198.161 108.542 198.16 108.544C198.142 109.32 198.165 110.087 198.228 110.843C198.637 117.156 200.926 122.549 204.791 126.202C205.15 126.541 205.52 126.86 205.899 127.161L194.507 122.445C195.172 121.042 195.755 119.589 196.243 118.094C199.122 109.269 198.444 100.033 194.43 93.3886H194.43Z" fill="#FFE500"/>
<path d="M98.0796 140.984C99.1678 142.632 100.498 144.148 102.052 145.489C106.316 149.17 111.865 151.245 117.256 151.245C117.99 151.245 118.721 151.207 119.446 151.129C130.263 149.963 140.639 141.239 144.678 129.914C147.597 121.728 147.173 112.934 143.543 106.39C140.62 101.121 135.834 97.6267 129.7 96.2844C129.677 96.2797 129.654 96.277 129.631 96.277C127.795 95.8776 125.848 95.7361 123.858 95.8832C122.197 96.0079 120.535 96.3198 118.917 96.8131C115.048 97.9898 111.55 100.116 108.516 103.132C104.39 106.698 101.196 111.653 99.4443 117.366C97.01 125.306 97.7975 133.189 101.604 138.995C104.459 143.349 108.785 146.059 113.783 146.624C114.42 146.696 115.061 146.731 115.701 146.731C125.697 146.731 135.736 138.109 139.133 126.24C140.838 120.284 140.665 114.148 138.646 108.964C136.596 103.701 132.821 99.913 128.019 98.2988C124.131 96.9919 119.806 97.1818 115.632 98.7987C116.751 98.2504 117.91 97.7934 119.105 97.4303C120.678 96.9518 122.293 96.6474 123.906 96.5264C126.03 96.3691 128.105 96.5469 130.036 97.03C130.06 97.0356 130.084 97.0412 130.108 97.0477C132.598 97.6817 134.842 98.8239 136.631 100.412C143.642 106.639 145.724 118.075 141.812 128.869C137.405 141.029 126.004 149.922 114.704 150.014C113.402 150.024 111.813 149.964 109.422 149.123C109.405 149.116 109.387 149.112 109.369 149.11C106.88 148.158 104.525 146.77 102.474 145.001C98.7024 141.745 96.2895 137.438 95.5261 132.684C95.4079 131.844 95.3232 130.99 95.2739 130.119C94.6697 119.287 99.2749 108.086 107.294 100.889C112.728 96.0098 119.116 93.4377 125.622 93.4377C126.968 93.4377 128.319 93.5476 129.668 93.7701C131.555 94.081 133.328 94.6107 134.973 95.3442C135.236 95.4764 135.502 95.6011 135.77 95.7212C139.217 97.4443 142.058 100.113 144.144 103.629C148.375 110.76 148.991 120.482 145.79 129.635C141.481 141.961 130.677 151.444 119.514 152.694C116.785 153.001 114.099 152.798 111.561 152.121C111.536 152.11 111.51 152.101 111.482 152.096L111.438 152.088C108.543 151.297 105.842 149.885 103.492 147.898C101.26 146.012 99.4387 143.669 98.0796 140.983V140.984Z" fill="#FFE500"/>
<path d="M144.698 103.3C143.123 100.646 141.131 98.4595 138.783 96.7811C140.492 97.2317 142.277 97.4644 144.123 97.4644C144.611 97.4644 145.103 97.4486 145.598 97.416C150.587 97.093 155.703 95.0394 160.269 91.5691C153.487 97.7986 149.164 106.92 148.581 116.436C148.579 116.461 148.579 116.485 148.578 116.51C148.578 116.513 148.577 116.515 148.577 116.518C148.512 117.358 148.497 118.192 148.525 119.015C148.639 125.855 150.932 131.809 155.108 135.974C155.392 136.257 155.685 136.527 155.983 136.79L145.704 131.672C145.951 131.07 146.185 130.464 146.4 129.848C149.662 120.517 149.026 110.592 144.699 103.299L144.698 103.3Z" fill="#FFE500"/>
<path d="M137.951 100.779C139.978 102.366 141.673 104.349 142.979 106.703C146.52 113.088 146.928 121.684 144.07 129.697C140.111 140.798 129.957 149.346 119.377 150.487C118.399 150.592 117.409 150.622 116.416 150.581C127.4 149.664 138.145 140.884 142.419 129.09C144.401 123.62 144.939 117.964 143.972 112.735C143.091 107.967 141.017 103.863 137.951 100.779Z" fill="#2A2A2A"/>
<path d="M188.458 99.0153C190.258 103.685 190.462 109.262 189.03 114.718C187.47 120.666 184.028 126.15 179.588 129.762C175.018 133.481 169.833 134.961 164.985 133.93C160.693 133.018 157.25 130.341 155.029 126.188C151.857 120.259 151.748 112.239 154.736 104.735C156.461 100.404 159.07 96.6611 162.262 93.8712C162.346 93.874 162.432 93.8442 162.498 93.779C162.77 93.51 163.047 93.2521 163.326 92.9989C164.066 92.4236 164.831 91.893 165.623 91.4201C168.593 89.6487 171.687 88.7476 174.664 88.7476C176.307 88.7476 177.914 89.0222 179.444 89.577C183.472 91.0366 186.673 94.3888 188.457 99.0153H188.458Z" fill="#2A2A2A"/>
<path d="M277.492 99.6502C280.936 89.8786 279.629 80.0726 274.296 74.7312C275.619 75.7161 276.769 76.9588 277.713 78.4529C281.188 83.947 281.631 92.299 278.869 100.249C275.315 110.482 266.69 117.973 258.363 118.06C257.793 118.067 257.221 118.025 256.651 117.949C265.021 117.8 273.751 110.262 277.492 99.6493V99.6502Z" fill="#2A2A2A"/>
<path d="M3.7509 60.6801C6.27174 56.3068 10.0754 52.9063 14.7512 50.8453C20.3123 48.3942 26.7895 48.4212 32.521 50.9188L129.204 93.0481C121.326 91.9292 113.412 94.5282 106.863 100.408C98.7016 107.734 94.0146 119.132 94.629 130.155C94.6309 130.181 94.6327 130.207 94.6346 130.233C94.6346 130.235 94.6346 130.238 94.6346 130.24C94.6681 131.098 94.7547 131.945 94.8878 132.779C95.7898 139.169 98.6439 144.645 103.075 148.391C103.291 148.574 103.511 148.75 103.732 148.923C88.8798 139.815 74.1429 130.576 59.8761 121.63C44.239 111.825 28.0695 101.686 11.7351 91.7132C3.48839 86.679 -0.79277 77.0526 1.08112 67.7605C1.58566 65.261 2.48396 62.8789 3.75183 60.6783L3.7509 60.6801Z" fill="#FFE500"/>
<path d="M138.513 126.064C134.983 138.398 124.15 147.146 113.857 145.983C109.052 145.439 104.893 142.832 102.145 138.641C98.444 132.996 97.6853 125.311 100.063 117.555C101.766 111.999 104.859 107.176 108.851 103.695C108.874 103.681 108.895 103.666 108.914 103.646C108.927 103.633 108.94 103.621 108.952 103.609C110.447 102.318 112.066 101.214 113.784 100.332C116.689 98.8398 119.722 98.082 122.658 98.082C124.428 98.082 126.162 98.3566 127.813 98.9114C137.261 102.088 141.961 114.014 138.512 126.064H138.513Z" fill="#2A2A2A"/>
<path d="M200.767 119.173C201.681 120.775 202.824 122.247 204.183 123.551C207.525 126.757 211.779 128.547 215.984 128.547C216.3 128.547 216.616 128.536 216.93 128.516C221.305 128.234 225.897 126.177 229.857 122.723C233.979 119.131 237.099 114.388 238.88 109.007C241.536 100.981 241.033 92.6423 237.532 86.7004C235.054 82.4947 231.218 79.796 226.438 78.8949C226.419 78.8912 226.4 78.8903 226.382 78.8903C224.913 78.6157 223.359 78.5644 221.775 78.7599C220.466 78.9219 219.154 79.2421 217.877 79.7104C214.652 80.8954 211.745 82.9583 209.228 85.8384C206.22 88.8471 203.828 92.8452 202.366 97.4317C200.03 104.759 200.52 112.378 203.674 117.815C205.775 121.437 208.84 123.768 212.535 124.559C213.423 124.749 214.325 124.843 215.231 124.843C218.837 124.843 222.538 123.361 225.891 120.53C230.019 117.046 233.145 111.935 234.693 106.141C237.78 94.5925 233.657 83.4395 225.307 80.7511C222.326 79.7914 219.106 79.9803 215.914 81.2873C216.624 80.9168 217.353 80.591 218.098 80.3173C219.329 79.8649 220.592 79.5568 221.853 79.4013C225.74 78.921 229.44 79.9701 232.002 82.2796C237.949 87.6388 239.668 97.9688 236.281 107.986C232.42 119.4 222.445 127.654 213.063 127.19C212.014 127.137 210.737 127.005 208.859 126.104C208.837 126.094 208.814 126.086 208.791 126.081C207.306 125.308 205.898 124.304 204.628 123.084C201.259 119.852 199.257 115.545 198.868 110.783C198.82 110.027 198.796 109.257 198.804 108.475C198.892 98.5423 203.308 88.5576 210.325 82.4165C214.564 78.7069 219.446 76.7334 224.279 76.7334C225.006 76.7334 225.732 76.7781 226.454 76.8684C231.264 77.4688 235.23 80.0213 237.923 84.2503C241.93 90.5431 242.645 99.9414 239.789 108.777C236.012 120.466 226.402 129.398 216.94 130.016C212.61 130.299 208.451 128.778 205.232 125.735C203.341 123.947 201.84 121.726 200.765 119.174L200.767 119.173Z" fill="#FFE500"/>
<path d="M238.471 83.9029C237.216 81.9322 235.692 80.3143 233.943 79.0697L233.79 78.8975C233.6 78.6834 233.397 78.4814 233.187 78.2877L234.706 78.8295C234.719 78.8342 234.732 78.8332 234.745 78.836C236.623 79.699 238.632 80.1719 240.7 80.2054C240.784 80.2063 240.868 80.2072 240.951 80.2072C244.637 80.2072 248.413 78.8742 251.903 76.385C246.284 82.4451 242.745 91.2681 242.567 99.8909C242.567 99.9114 242.567 99.9319 242.567 99.9533C242.567 99.9551 242.567 99.9561 242.567 99.9579C242.549 100.513 242.557 101.062 242.581 101.607C242.584 101.697 242.588 101.787 242.592 101.876C242.594 101.918 242.595 101.959 242.598 102.001C242.876 107.883 244.849 112.94 248.254 116.397C248.755 116.906 249.279 117.369 249.823 117.791L238.554 113.596C239.269 112.115 239.893 110.571 240.409 108.975C243.321 99.9616 242.58 90.3549 238.472 83.9038L238.471 83.9029Z" fill="#FFE500"/>
<path d="M266.402 74.002C269.236 74.717 271.622 76.6243 273.302 79.5176C276.014 84.1897 276.54 90.8977 274.71 97.4605C273.177 102.956 270.23 107.733 266.414 110.907C262.625 114.059 258.46 115.226 254.687 114.195C251.834 113.415 249.457 111.433 247.816 108.464C245.143 103.626 244.747 96.7753 246.758 90.1399C247.951 86.2023 249.885 82.6547 252.333 79.8452C252.338 79.8396 252.342 79.8359 252.347 79.8303C252.354 79.821 252.362 79.8117 252.369 79.8024C253.196 78.8585 254.081 77.9974 255.017 77.235C257.875 74.905 260.946 73.6902 263.884 73.6902C264.737 73.6902 265.58 73.7926 266.402 74.0002V74.002Z" fill="#2A2A2A"/>
<path d="M189.01 91.6128C190.509 92.9226 191.791 94.4985 192.819 96.3287C196.116 102.204 196.551 110.263 193.981 117.884C190.183 129.145 179.983 137.765 169.726 138.383C168.644 138.447 167.551 138.404 166.463 138.263C177.207 138.132 188.208 129.292 192.432 117.186C194.238 112.006 194.722 106.703 193.83 101.854C193.085 97.8069 191.43 94.3077 189.011 91.6128H189.01Z" fill="#2A2A2A"/>
<path d="M150.592 127.436C151.561 129.424 152.856 131.262 154.459 132.891C158.303 136.798 163.567 139.058 168.722 139.058C169.072 139.058 169.419 139.048 169.767 139.026C180.276 138.394 190.717 129.59 194.595 118.091C197.222 110.299 196.769 102.045 193.384 96.0127C190.767 91.348 186.58 88.2481 181.275 87.0454C181.251 87.0398 181.227 87.038 181.204 87.038C179.639 86.6861 177.98 86.5474 176.285 86.647C174.87 86.7308 173.446 86.9709 172.052 87.361C168.725 88.2919 165.657 90.0215 162.913 92.5023C159.156 95.4299 156.09 99.5938 154.139 104.493C151.081 112.172 151.201 120.395 154.461 126.49C156.742 130.753 160.432 133.62 164.852 134.559C165.903 134.782 166.97 134.893 168.042 134.893C172.109 134.893 176.257 133.302 179.997 130.26C184.608 126.509 188.038 121.046 189.656 114.879C191.121 109.293 190.91 103.576 189.061 98.7811C187.209 93.9777 183.873 90.4925 179.666 88.9686C176.507 87.8246 173.045 87.8199 169.608 88.9081C170.46 88.5413 171.335 88.2323 172.226 87.9828C173.576 87.6049 174.955 87.3731 176.324 87.2912C180.506 87.0436 184.468 88.2853 187.188 90.6991C193.589 96.3804 195.409 106.694 191.824 116.973C187.529 129.285 176.105 138.149 165.258 137.596C164.015 137.53 162.504 137.375 160.304 136.336C160.276 136.322 160.245 136.315 160.215 136.31C158.283 135.328 156.48 134.024 154.92 132.437C151.342 128.8 149.346 124.09 149.171 118.981C149.158 118.159 149.175 117.323 149.227 116.475C149.849 106.314 154.805 96.6112 162.485 90.5186C167.222 86.7624 172.56 84.7861 177.823 84.7861C178.988 84.7861 180.149 84.883 181.301 85.0784C186.667 85.9916 191.017 88.9807 193.881 93.7208C197.799 100.207 198.454 109.243 195.632 117.891C195.116 119.472 194.493 121.006 193.777 122.482C193.776 122.484 193.775 122.486 193.774 122.489C193.774 122.489 193.774 122.49 193.774 122.491C188.784 132.768 179.262 140.213 169.734 140.817C166.495 141.023 163.379 140.419 160.59 139.083L160.112 138.845C158.46 137.992 156.929 136.879 155.565 135.518C153.344 133.301 151.672 130.559 150.595 127.436H150.592Z" fill="#FFE500"/>
<path d="M236.895 108.193C240.136 98.6137 238.785 88.7314 233.595 82.9626C234.907 84.0853 236.044 85.4444 236.978 87.0297C240.386 92.8133 240.869 100.954 238.269 108.806C234.803 119.279 225.811 127.297 216.89 127.872C216.139 127.921 215.385 127.904 214.632 127.833C218.776 127.624 223.098 125.838 226.967 122.709C231.423 119.105 234.949 113.95 236.895 108.193Z" fill="#2A2A2A"/>
<path d="M225.112 81.3672C233.134 83.9504 237.07 94.7599 234.072 105.976C231.234 116.595 223.122 124.195 215.197 124.196C214.351 124.196 213.507 124.109 212.672 123.93C209.159 123.179 206.241 120.953 204.235 117.494C201.17 112.212 200.702 104.787 202.983 97.6308C204.358 93.3124 206.574 89.5321 209.353 86.6379C209.395 86.6184 209.434 86.5914 209.466 86.5541C209.55 86.4555 209.635 86.3605 209.719 86.2637C211.265 84.724 212.976 83.4552 214.806 82.5122C217.022 81.3719 219.268 80.7957 221.446 80.7957C222.697 80.7957 223.925 80.9855 225.113 81.3681L225.112 81.3672Z" fill="#2A2A2A"/>
<path d="M3.19177 60.357C5.78149 55.8645 9.68842 52.3709 14.4909 50.254C19.7542 47.9342 25.8124 47.7713 31.3391 49.7569C27.9078 47.8812 25.0649 45.0615 23.2264 41.6703C19.2375 34.3144 19.1984 25.4812 23.124 18.6177C27.0058 11.8297 34.263 7.49546 42.5367 7.02443C44.3389 6.92203 46.1924 7.10915 48.043 7.58111L68.0524 12.6852C69.1574 10.7573 71.1616 8.09124 74.5175 6.10006C75.6113 5.45123 76.7786 4.91876 77.9878 4.51662C80.9508 3.53174 84.2015 3.3772 87.3889 4.06979L108.851 8.72889C109.766 6.96486 111.426 4.55013 114.267 2.62319C114.4 2.53289 114.533 2.44632 114.665 2.36254C117.963 0.26245 121.969 -0.471086 125.944 0.296898L249.586 24.1668C253.546 24.6229 257.045 26.5368 259.821 29.7959C264.967 35.8373 266.822 45.7904 264.659 55.7723C263.844 59.5359 262.482 63.1171 260.68 66.3314L269.879 69.1706C269.879 69.1706 269.886 69.1743 269.891 69.1753C273.716 69.8446 276.922 71.9307 279.242 75.3005C283.511 81.5021 284.194 91.1312 281.025 100.43C279.071 106.164 275.679 111.361 271.474 115.064C267.36 118.687 262.713 120.695 258.391 120.718C258.365 120.718 258.34 120.718 258.315 120.718C256.541 120.718 254.838 120.388 253.242 119.753L238.267 114.178C233.574 123.47 225.232 130.121 216.987 130.659C216.631 130.682 216.276 130.693 215.922 130.693C213.953 130.693 212.031 130.33 210.223 129.637C210.198 129.634 210.173 129.628 210.148 129.617L194.226 123.026C189.102 133.372 179.445 140.848 169.774 141.462C169.345 141.489 168.919 141.503 168.495 141.503C165.613 141.503 162.848 140.876 160.336 139.678C160.334 139.677 160.332 139.677 160.33 139.676L145.455 132.27C143.216 137.482 139.814 142.153 135.508 145.89C130.679 150.083 125.024 152.727 119.586 153.336C118.73 153.432 117.879 153.479 117.035 153.479C115.075 153.479 113.155 153.222 111.31 152.722L110.804 152.638C108.757 152.296 106.823 151.575 105.057 150.494C89.6388 141.055 74.3341 131.458 59.5339 122.177C43.8986 112.373 27.7309 102.236 11.3994 92.2651C2.92178 87.0893 -1.47852 77.1912 0.448425 67.6337C0.966003 65.0654 1.88943 62.6172 3.19269 60.357H3.19177ZM47.8828 8.2076C46.0965 7.75146 44.3101 7.57087 42.5731 7.66954C34.5181 8.12847 27.4572 12.3407 23.6844 18.9389C19.8696 25.6096 19.9115 34.2027 23.7942 41.3631C25.8487 45.1518 29.1989 48.2079 33.2288 49.9682L130.876 92.6207C130.739 92.5034 130.6 92.3898 130.465 92.2679C125.213 87.5622 121.858 79.8935 121.49 71.7529C121.435 70.5418 121.448 69.3261 121.528 68.1373C122.186 58.3304 127.133 48.2824 134.438 41.9123C139.834 37.2076 146.091 34.8059 152.614 34.9195L47.8828 8.20573V8.2076ZM169.838 79.3322C169.841 79.3248 169.841 79.3173 169.844 79.3099C169.856 79.2801 169.874 79.254 169.893 79.2298C171.244 76.7118 172.339 74.0038 173.117 71.1618C175.796 61.3763 174.438 51.3636 169.484 44.3792C166.474 40.1343 162.399 37.3472 157.565 36.1836C157.561 36.1836 157.557 36.1836 157.554 36.1818L157.412 36.1455C156.282 35.882 155.111 35.707 153.903 35.6232C153.324 35.5832 152.748 35.5627 152.172 35.5627C145.968 35.5627 140.015 37.9067 134.861 42.4001C128.051 48.3382 123.329 57.5308 122.307 66.6889C122.307 66.6963 122.309 66.7038 122.309 66.7122C122.216 72.0201 123.102 77.0664 124.872 81.3066C126.664 85.599 130.084 89.1671 134.255 91.0959C134.302 91.1182 139.1 93.3021 144.542 93.0973C154.95 92.7063 165.591 80.4316 168.999 69.2134C170.849 63.1245 170.758 57.0737 168.731 51.2287C166.814 45.7038 163.128 41.5614 158.351 39.5637C157.532 39.2835 155.347 38.6328 152.485 38.5481C150.532 38.4904 148.57 38.7138 146.666 39.2016C147.489 39.1159 148.318 39.0843 149.149 39.1122C154.02 39.2742 158.315 41.4096 161.57 45.2859C165.914 50.4607 167.764 57.9581 166.645 65.8548C165.745 72.2109 162.947 78.2133 158.77 82.757C154.591 87.3034 149.42 89.9704 144.209 90.2674C143.887 90.286 143.566 90.2953 143.247 90.2953C138.821 90.2953 134.639 88.5443 131.381 85.3067C126.876 80.83 124.513 73.9368 124.895 66.3929C125.26 59.2036 128.084 52.1232 132.64 46.967C135.371 43.8784 138.518 41.6424 141.863 40.3605C141.887 40.3354 141.914 40.313 141.947 40.2963C145.227 38.6235 148.88 37.7959 152.505 37.902C155.421 37.9877 157.662 38.6468 158.53 38.9418L158.621 38.9539L158.648 38.9828C160.223 39.532 163.187 40.8316 165.895 43.493C166.219 43.8123 166.501 44.1167 166.682 44.3168C168.259 46.0659 169.573 48.2042 170.588 50.6748C172.174 54.5352 173.679 60.9108 171.837 69.3615C171.08 72.8393 169.67 79.3127 163.815 85.383C161.156 88.1394 154.93 94.5932 145.666 94.8064C145.513 94.8101 145.36 94.812 145.206 94.812C141.51 94.812 137.775 93.7927 134.373 91.8508C134.149 91.7577 134.015 91.6972 133.985 91.6833C129.669 89.6874 126.131 85.9965 124.278 81.557C123.758 80.3106 123.315 78.9934 122.947 77.624C124.264 83.2932 127.062 88.3544 130.897 91.7894C132.228 92.9828 133.672 93.9686 135.207 94.7431C135.509 94.8771 135.808 95.0186 136.102 95.1666C138.995 96.4429 142.186 96.994 145.556 96.7752C155.195 96.1506 164.496 89.2145 169.839 79.3341L169.838 79.3322ZM162.692 89.5441C168.481 85.1801 175.099 83.3704 181.407 84.4447C181.497 84.4605 181.587 84.4772 181.678 84.494L170.278 79.8349C168.274 83.4737 165.708 86.7803 162.713 89.5264C162.706 89.5329 162.7 89.5385 162.692 89.5441ZM139.606 93.3635C141.596 93.9323 143.631 94.2041 145.65 94.1594C154.648 93.9528 160.746 87.632 163.349 84.9334C169.077 78.9952 170.462 72.6382 171.206 69.2228C173.012 60.935 171.541 54.6944 169.99 50.9196C169.004 48.5188 167.729 46.443 166.203 44.7487C166.029 44.556 165.756 44.261 165.442 43.9538C165.293 43.8076 165.143 43.667 164.993 43.5293C166.856 45.5893 168.337 48.1186 169.343 51.0164C171.416 56.9937 171.509 63.1785 169.619 69.4006C166.146 80.831 155.252 93.3402 144.568 93.7414C144.31 93.7508 144.053 93.7554 143.799 93.7554C142.303 93.7554 140.882 93.5953 139.606 93.3635ZM133.124 47.3943C128.663 52.4425 125.898 59.3795 125.54 66.4254C125.166 73.786 127.461 80.5014 131.836 84.8487C135.198 88.1896 139.58 89.8848 144.173 89.6232C154.605 89.0284 164.195 78.5475 166.006 65.7636C167.1 58.0474 165.302 50.7344 161.076 45.7001C157.943 41.9672 153.812 39.9128 149.128 39.7564C148.936 39.7499 148.743 39.7471 148.55 39.7471C142.956 39.7471 137.499 42.4466 133.125 47.3953L133.124 47.3943ZM87.2511 4.70186C84.1773 4.03442 81.0439 4.18243 78.1898 5.131C77.0253 5.51825 75.8998 6.03117 74.8461 6.65673C71.6996 8.52317 69.7848 11.0068 68.7012 12.8527L157.545 35.5143C162.607 36.6882 166.87 39.5795 170.01 44.0068C175.075 51.1477 176.469 61.3633 173.739 71.3331C172.987 74.0801 171.917 76.7462 170.584 79.2643L186.426 85.7386C185.146 84.9352 183.942 83.9587 182.839 82.8184C179.174 79.0278 176.776 73.5654 176.088 67.4355C175.975 66.4338 175.906 65.4033 175.884 64.3719C175.66 54.3248 179.471 44.2209 186.076 37.3426C190.698 32.5299 196.151 29.8582 201.88 29.5892L87.2502 4.7028L87.2511 4.70186ZM220.783 63.1729C223.162 53.2496 221.468 43.1364 216.362 36.7803C213.86 33.6674 210.722 31.6213 207.133 30.7267C207.126 30.7258 207.12 30.7267 207.112 30.7249L206.093 30.5033C205.04 30.3106 203.952 30.212 202.832 30.212C202.715 30.212 202.598 30.2129 202.48 30.2148C196.713 30.319 191.202 32.9385 186.543 37.7885C180.053 44.5458 176.31 54.4775 176.53 64.3561C176.552 65.3605 176.619 66.3649 176.728 67.3405C176.728 67.3433 176.73 67.347 176.731 67.3498C177.335 71.3443 178.98 74.998 181.487 77.9163C182.301 78.8649 183.818 80.6289 186.451 82.0653C186.491 82.0867 190.45 84.2129 195.036 84.2129C195.075 84.2129 195.114 84.2129 195.153 84.2129C199.396 84.1794 204.055 81.5878 208.272 76.9147C212.208 72.5526 215.318 66.8695 216.805 61.3214C218.414 55.3143 218.19 49.4432 216.137 43.8709C214.241 38.7222 210.802 35.0461 206.452 33.5176C205.724 33.3183 203.787 32.8799 201.292 33.0158C200.413 33.0633 199.536 33.1824 198.669 33.3658C198.746 33.3602 198.823 33.3528 198.899 33.3472C203.159 33.0772 206.991 34.6439 209.987 37.8732C214.333 42.5583 216.262 50.1516 215.146 58.1843C213.374 70.9421 204.4 81.2042 194.716 81.5477C194.55 81.5533 194.385 81.5561 194.221 81.5561C190.569 81.5561 187.204 80.1123 184.465 77.3634C180.443 73.327 178.296 66.9486 178.573 59.8636C178.832 53.2673 181.073 46.8544 184.883 41.8071C187.11 38.8571 189.703 36.6118 192.486 35.1727C195.183 33.5064 198.208 32.5373 201.256 32.3716C203.812 32.232 205.809 32.676 206.589 32.8873L206.692 32.8939L206.721 32.9236C208.156 33.3267 210.847 34.3349 213.37 36.6565C213.506 36.7813 213.783 37.0419 214.115 37.3882C215.619 38.9595 216.893 40.9312 217.902 43.2491C219.503 46.9261 221.085 53.0607 219.535 61.4089C218.898 64.8457 217.71 71.2437 212.332 77.1809C209.96 79.7995 204.427 85.908 196.294 85.908C196.237 85.908 196.179 85.908 196.121 85.908C192.807 85.8727 189.467 84.7975 186.463 82.7998C186.279 82.7086 186.167 82.649 186.142 82.635C183.405 81.1419 181.839 79.3192 180.997 78.3399C180.019 77.2005 179.169 75.954 178.455 74.621C181.581 82.837 188.191 87.996 196.08 87.7586C206.88 87.4384 217.5 76.87 220.783 63.1757L220.783 63.1729ZM212.981 79.6059C217.253 76.8486 221.958 75.6571 226.537 76.2286C227.132 76.3031 227.713 76.4074 228.282 76.5386L224.878 75.3247L217.741 72.8504C216.395 75.3136 214.794 77.5896 212.981 79.605V79.6059ZM191.314 84.454C192.897 84.9697 194.516 85.2434 196.129 85.2611C204.067 85.3523 209.523 79.3201 211.854 76.7471C217.108 70.9458 218.275 64.6651 218.901 61.2916C220.421 53.1044 218.875 47.1011 217.311 43.5069C216.333 41.2598 215.101 39.3514 213.649 37.835C213.331 37.5018 213.065 37.2523 212.934 37.1322C212.879 37.0819 212.824 37.0354 212.769 36.986C214.43 38.7873 215.782 41.0354 216.744 43.6494C218.844 49.3492 219.074 55.3516 217.43 61.4899C214.422 72.7155 204.755 84.7844 195.16 84.8608C195.118 84.8608 195.077 84.8608 195.035 84.8608C193.713 84.8608 192.453 84.6951 191.316 84.4549L191.314 84.454ZM192.801 35.7368C192.738 35.7759 192.674 35.8131 192.611 35.8532C192.574 35.8774 192.533 35.8923 192.491 35.8988C189.902 37.2979 187.487 39.4268 185.397 42.1953C181.72 47.0676 179.467 53.5168 179.217 59.8887C178.947 66.7941 181.026 72.9975 184.921 76.9073C187.653 79.6497 191.028 81.0302 194.691 80.9017C204.07 80.5694 212.773 70.5521 214.504 58.0949C215.593 50.2522 213.726 42.8572 209.51 38.3116C206.861 35.4557 203.528 33.9625 199.823 33.9625C199.529 33.9625 199.233 33.9718 198.936 33.9904C196.838 34.1226 194.771 34.7193 192.798 35.7349L192.801 35.7368ZM125.822 0.93176C122.009 0.195427 118.17 0.897316 115.011 2.90897C114.884 2.98996 114.756 3.07373 114.63 3.1603C111.982 4.95506 110.4 7.19385 109.504 8.87317L206.157 29.8573C210.358 30.6113 214.011 32.824 216.865 36.3763C222.093 42.8842 223.835 53.2105 221.411 63.3237C220.659 66.4599 219.516 69.4778 218.049 72.2742L230.173 76.4772C230.476 76.5824 230.77 76.7062 231.058 76.8439L231.882 77.1381C230.766 76.3115 229.722 75.3303 228.773 74.1965C225.582 70.3854 223.584 65.0403 223.144 59.1459C223.074 58.2038 223.043 57.2366 223.05 56.2713C223.112 48.5272 225.646 40.5867 230.003 34.4894C234.378 28.3651 240.052 24.716 246.049 24.1444L125.821 0.933624L125.822 0.93176ZM264.028 55.6364C266.149 45.8472 264.348 36.1064 259.33 30.2157C256.249 26.6001 252.246 24.7076 247.705 24.7076C247.409 24.7076 247.11 24.716 246.81 24.7318C240.747 25.0576 234.966 28.6555 230.53 34.8636C226.248 40.8567 223.758 48.6613 223.697 56.2759C223.69 57.2171 223.72 58.1601 223.788 59.0779C223.788 59.0807 223.789 59.0826 223.79 59.0854C224.208 62.8825 225.552 66.4077 227.676 69.2814C228.377 70.23 229.682 71.9949 232.007 73.4946C232.044 73.5179 235.638 75.806 239.885 75.954C248.531 76.2603 257.507 64.5031 260.166 53.7681C261.614 47.9203 261.324 42.2688 259.304 36.9693C257.489 32.2087 254.309 28.8817 250.349 27.5999C249.695 27.4398 247.965 27.0981 245.749 27.2908C245.123 27.3448 244.499 27.4416 243.88 27.5747C247.506 27.3094 250.816 28.6034 253.467 31.3328C257.636 35.6242 259.546 42.8562 258.576 50.6794C257.821 56.7702 255.414 62.4654 251.799 66.7159C248.202 70.9449 243.83 73.2749 239.49 73.2749C236.17 73.2749 233.12 71.8953 230.666 69.2851C226.936 65.3167 225.044 59.0509 225.475 52.0962C226.086 42.2558 231.15 33.4152 237.709 29.5706C237.723 29.5566 237.737 29.5445 237.754 29.5333C240.178 27.8866 242.922 26.8887 245.692 26.6485C247.969 26.4502 249.762 26.7956 250.47 26.966L250.568 26.9678L250.601 26.9995C251.908 27.3309 254.361 28.1845 256.691 30.2613C256.817 30.3739 257.077 30.6104 257.386 30.9232C258.802 32.3577 260.014 34.1813 260.988 36.3437C262.564 39.8402 264.159 45.7187 262.813 53.8631C262.249 57.2739 261.199 63.6235 256.076 69.4657C253.882 71.9689 248.845 77.7143 241.535 77.7134C241.274 77.7134 241.009 77.7059 240.743 77.6911C237.683 77.5179 234.641 76.3152 231.941 74.2114C231.777 74.1155 231.679 74.0522 231.656 74.0382C229.231 72.4743 227.881 70.6479 227.155 69.6668C226.438 68.6959 225.808 67.6514 225.269 66.5502C227.121 72.0126 230.493 76.1356 234.756 78.164L234.925 78.2235C234.972 78.2403 235.012 78.2682 235.045 78.3017C236.801 79.0911 238.704 79.5296 240.711 79.5631C245.556 79.6506 250.585 77.3122 254.891 73.0003C259.319 68.5665 262.564 62.4003 264.028 55.6383V55.6364ZM236.431 76.0685C237.851 76.6317 239.314 76.9622 240.779 77.045C248.203 77.4658 253.38 71.5602 255.59 69.0384C260.591 63.3349 261.622 57.1035 262.176 53.756C263.496 45.7709 261.938 40.0235 260.398 36.6081C259.455 34.5155 258.287 32.7552 256.925 31.3756C256.733 31.1801 256.565 31.0218 256.435 30.9017C257.857 32.4908 259.035 34.4568 259.905 36.7403C261.973 42.1655 262.27 47.9463 260.79 53.9245C259.409 59.5033 256.448 65.1911 252.666 69.529C248.678 74.1053 244.266 76.6066 240.202 76.6066C240.088 76.6066 239.974 76.6047 239.861 76.601C238.638 76.5582 237.475 76.3506 236.431 76.0704V76.0685ZM243.66 28.2357C234.752 29.0781 226.884 39.7992 226.118 52.1354C225.698 58.9141 227.527 65.003 231.135 68.843C233.463 71.3201 236.352 72.6289 239.488 72.6289C248.153 72.6289 256.427 62.7466 257.933 50.6003C258.878 42.9698 257.035 35.9351 253.002 31.7824C250.7 29.4133 247.881 28.1826 244.789 28.1826C244.417 28.1826 244.04 28.2003 243.66 28.2366V28.2357ZM260.35 66.9058C259.111 69.0226 257.679 70.97 256.08 72.6903C259.499 70.2616 263.189 68.9798 266.935 68.9379L260.35 66.9058ZM258.387 120.073C262.553 120.051 267.049 118.1 271.047 114.58C275.169 110.952 278.495 105.852 280.413 100.222C283.518 91.1136 282.865 81.7041 278.709 75.6673C276.089 71.86 272.291 69.7599 267.726 69.5923C267.527 69.5849 267.328 69.5811 267.129 69.5811C262.431 69.5811 257.801 71.6124 253.705 75.4802C247.422 81.4137 243.401 90.7729 243.213 99.9058C243.201 100.482 243.207 101.051 243.226 101.613C243.229 101.682 243.23 101.751 243.234 101.82C243.236 101.867 243.238 101.914 243.24 101.96C243.521 106.428 245.271 110.493 248.272 113.563C249.262 114.577 250.357 115.432 251.513 116.119C253.038 116.963 254.106 117.139 254.987 117.235C263.563 118.158 272.976 110.507 276.879 99.4348C280.426 89.3719 278.849 79.3006 272.953 74.3743C271.591 73.2358 269.902 72.5069 268.04 72.2202C268.002 72.2146 267.965 72.21 267.927 72.2053C266.499 71.9996 264.973 72.0508 263.417 72.3775C262.265 72.6196 261.114 73.004 259.997 73.5188C259.539 73.7301 259.09 73.9638 258.647 74.2151C261.302 73.0366 264.014 72.7359 266.556 73.3773C269.563 74.136 272.088 76.1476 273.856 79.1954C276.654 84.0146 277.204 90.9088 275.327 97.6363C272.44 107.987 264.819 115.21 257.423 115.21C256.445 115.21 255.471 115.083 254.512 114.821C251.487 113.995 248.975 111.905 247.247 108.779C244.49 103.792 244.075 96.7547 246.136 89.9555C247.358 85.9266 249.339 82.2943 251.853 79.4141C254.114 76.4809 256.763 74.2998 259.727 72.9333C260.888 72.398 262.084 71.9996 263.284 71.7473C264.762 71.4373 266.216 71.3657 267.595 71.5155C267.607 71.5155 267.618 71.5146 267.631 71.5155C267.787 71.5323 267.94 71.5574 268.094 71.5779C268.112 71.5807 268.129 71.5826 268.146 71.5854C272.442 72.1932 275.931 74.4376 278.253 78.11C281.829 83.766 282.297 92.3312 279.472 100.463C275.832 110.944 266.954 118.618 258.364 118.708C258.321 118.708 258.278 118.708 258.235 118.708C255.842 118.708 253.416 117.996 251.211 116.693C251.159 116.664 251.109 116.637 251.056 116.607C251.035 116.595 251.015 116.58 250.998 116.564C249.862 115.868 248.785 115.015 247.808 114.015C246.723 112.905 245.796 111.667 245.036 110.332C245.944 112.491 247.176 114.389 248.709 115.946C251.387 118.665 254.735 120.083 258.383 120.074L258.387 120.073ZM256.649 117.949C257.219 118.027 257.791 118.067 258.361 118.061C266.688 117.973 275.312 110.482 278.866 100.249C281.628 92.2995 281.185 83.9476 277.711 78.4535C276.766 76.9594 275.617 75.7167 274.294 74.7318C279.627 80.0723 280.934 89.8783 277.49 99.6508C273.748 110.264 265.018 117.8 256.649 117.95V117.949ZM255.016 77.2368C254.08 77.9992 253.196 78.8593 252.369 79.8042C252.361 79.8135 252.354 79.8228 252.346 79.8321C252.342 79.8377 252.337 79.8414 252.332 79.847C249.883 82.6564 247.95 86.204 246.757 90.1417C244.746 96.778 245.141 103.628 247.816 108.465C249.457 111.435 251.832 113.417 254.686 114.197C258.459 115.228 262.624 114.06 266.413 110.909C270.23 107.734 273.176 102.958 274.709 97.4622C276.539 90.8985 276.013 84.1915 273.301 79.5193C271.622 76.6252 269.236 74.7178 266.402 74.0038C265.579 73.7962 264.736 73.6938 263.883 73.6938C260.945 73.6938 257.874 74.9077 255.016 77.2386V77.2368ZM249.821 117.792C249.277 117.37 248.753 116.907 248.252 116.398C244.848 112.941 242.874 107.884 242.596 102.002C242.593 101.961 242.592 101.919 242.59 101.877C242.586 101.788 242.583 101.699 242.579 101.608C242.555 101.063 242.547 100.515 242.565 99.9589C242.565 99.957 242.565 99.9561 242.565 99.9542C242.565 99.9338 242.565 99.9133 242.565 99.8919C242.743 91.269 246.281 82.446 251.901 76.3859C248.411 78.8761 244.634 80.2082 240.949 80.2082C240.866 80.2082 240.782 80.2082 240.698 80.2063C238.631 80.1719 236.622 79.6999 234.743 78.837C234.73 78.8342 234.717 78.8351 234.704 78.8305L233.185 78.2887C233.394 78.4823 233.598 78.6834 233.788 78.8984L233.941 79.0706C235.689 80.3152 237.213 81.9331 238.469 83.9038C242.577 90.3549 243.318 99.9617 240.405 108.975C239.889 110.571 239.265 112.115 238.55 113.596L249.819 117.791L249.821 117.792ZM216.944 130.015C226.405 129.397 236.015 120.465 239.792 108.777C242.648 99.9412 241.932 90.5438 237.926 84.2501C235.233 80.0211 231.267 77.4686 226.457 76.8682C225.735 76.7779 225.009 76.7332 224.282 76.7332C219.45 76.7332 214.567 78.7067 210.328 82.4163C203.31 88.5573 198.895 98.5421 198.807 108.475C198.801 109.257 198.823 110.026 198.871 110.782C199.26 115.545 201.262 119.852 204.631 123.084C205.901 124.304 207.309 125.308 208.794 126.081C208.817 126.086 208.84 126.093 208.863 126.104C210.74 127.005 212.017 127.137 213.066 127.19C222.448 127.655 232.423 119.4 236.284 107.986C239.671 97.9696 237.952 87.6385 232.005 82.2794C229.443 79.9699 225.743 78.9208 221.856 79.4011C220.595 79.5566 219.331 79.8656 218.102 80.3171C217.355 80.5917 216.627 80.9166 215.917 81.2871C219.109 79.9801 222.329 79.7911 225.31 80.7509C233.66 83.4393 237.783 94.5923 234.697 106.141C233.148 111.936 230.022 117.045 225.894 120.53C222.541 123.361 218.839 124.842 215.234 124.842C214.328 124.842 213.426 124.748 212.539 124.559C208.842 123.767 205.778 121.436 203.677 117.815C200.523 112.379 200.034 104.759 202.369 97.4315C203.83 92.845 206.223 88.8468 209.231 85.8382C211.748 82.9571 214.655 80.8943 217.88 79.7102C219.157 79.241 220.468 78.9217 221.779 78.7597C223.362 78.5642 224.917 78.6154 226.385 78.89C226.403 78.89 226.423 78.891 226.441 78.8947C231.221 79.7949 235.057 82.4945 237.535 86.7002C241.036 92.6421 241.54 100.981 238.883 109.007C237.102 114.388 233.982 119.131 229.861 122.723C225.899 126.176 221.308 128.233 216.933 128.516C216.619 128.536 216.303 128.547 215.988 128.547C211.781 128.547 207.527 126.756 204.186 123.55C202.828 122.247 201.684 120.775 200.77 119.172C201.845 121.725 203.346 123.946 205.237 125.733C208.457 128.776 212.616 130.298 216.945 130.015L216.944 130.015ZM214.631 127.834C215.384 127.905 216.139 127.922 216.89 127.873C225.81 127.298 234.802 119.279 238.268 108.807C240.867 100.955 240.385 92.8143 236.977 87.0307C236.044 85.4454 234.906 84.0863 233.594 82.9636C238.785 88.7314 240.135 98.6147 236.894 108.194C234.947 113.951 231.422 119.106 226.966 122.71C223.098 125.839 218.775 127.625 214.631 127.834ZM214.805 82.5121C212.975 83.4542 211.264 84.7239 209.719 86.2636C209.634 86.3604 209.55 86.4554 209.466 86.5541C209.434 86.5913 209.395 86.6192 209.352 86.6378C206.573 89.532 204.359 93.3132 202.982 97.6307C200.701 104.786 201.17 112.212 204.234 117.494C206.241 120.953 209.159 123.179 212.672 123.93C213.507 124.109 214.35 124.196 215.196 124.196C223.122 124.196 231.234 116.596 234.072 105.976C237.07 94.7599 233.134 83.9504 225.111 81.3671C223.924 80.9845 222.696 80.7947 221.444 80.7947C219.267 80.7947 217.021 81.3709 214.804 82.5112L214.805 82.5121ZM205.899 127.162C205.52 126.861 205.149 126.542 204.792 126.203C200.927 122.551 198.639 117.157 198.228 110.844C198.166 110.088 198.142 109.321 198.16 108.545C198.16 108.543 198.16 108.541 198.161 108.538C198.161 108.516 198.161 108.493 198.161 108.471C198.239 99.7094 201.63 90.9069 207.185 84.6411C203.635 86.9814 199.823 88.2911 196.098 88.4009C195.928 88.4056 195.759 88.4084 195.59 88.4084C193.086 88.4084 190.647 87.8527 188.387 86.7998C189.068 87.2727 189.691 87.8266 190.234 88.4531C191.852 89.8038 193.262 91.4552 194.43 93.3896C198.444 100.034 199.122 109.27 196.242 118.094C195.755 119.589 195.172 121.043 194.506 122.446L205.899 127.162H205.899ZM160.588 139.085C163.377 140.421 166.492 141.026 169.732 140.819C179.259 140.215 188.781 132.77 193.771 122.493C193.771 122.493 193.771 122.492 193.771 122.491C193.772 122.488 193.774 122.486 193.775 122.484C194.491 121.008 195.113 119.474 195.629 117.893C198.451 109.245 197.796 100.209 193.878 93.7228C191.015 88.9827 186.665 85.9946 181.298 85.0805C180.146 84.885 178.986 84.7882 177.82 84.7882C172.558 84.7882 167.219 86.7644 162.483 90.5206C154.802 96.6123 149.845 106.316 149.224 116.477C149.172 117.325 149.155 118.16 149.168 118.983C149.343 124.092 151.339 128.803 154.917 132.439C156.478 134.026 158.28 135.33 160.212 136.312C160.243 136.317 160.273 136.324 160.302 136.338C162.501 137.377 164.012 137.533 165.255 137.598C176.103 138.151 187.527 129.287 191.822 116.975C195.407 106.696 193.588 96.3833 187.185 90.7012C184.465 88.2874 180.503 87.0456 176.321 87.2932C174.952 87.3742 173.573 87.6069 172.224 87.9848C171.332 88.2343 170.458 88.5434 169.605 88.9101C173.044 87.821 176.506 87.8256 179.663 88.9706C183.87 90.4945 187.206 93.9798 189.059 98.7832C190.908 103.578 191.119 109.295 189.654 114.881C188.036 121.048 184.605 126.511 179.995 130.262C176.255 133.304 172.107 134.895 168.039 134.895C166.968 134.895 165.901 134.784 164.849 134.561C160.429 133.621 156.739 130.755 154.459 126.492C151.199 120.397 151.078 112.174 154.136 104.495C156.088 99.5958 159.153 95.432 162.91 92.5043C165.654 90.0235 168.723 88.2939 172.05 87.363C173.443 86.973 174.867 86.7328 176.282 86.649C177.977 86.5485 179.636 86.6872 181.201 87.04C181.224 87.04 181.248 87.0418 181.272 87.0474C186.577 88.2492 190.764 91.35 193.382 96.0147C196.767 102.048 197.22 110.301 194.592 118.093C190.715 129.592 180.273 138.397 169.764 139.028C169.417 139.049 169.069 139.06 168.72 139.06C163.565 139.06 158.3 136.8 154.457 132.893C152.854 131.264 151.558 129.426 150.59 127.438C151.667 130.561 153.339 133.303 155.56 135.52C156.924 136.881 158.455 137.994 160.106 138.847L160.585 139.085H160.588ZM192.432 117.187C188.21 129.293 177.209 138.133 166.464 138.264C167.551 138.406 168.644 138.448 169.727 138.383C179.984 137.767 190.184 129.146 193.981 117.885C196.552 110.264 196.117 102.205 192.82 96.3293C191.793 94.4992 190.51 92.9223 189.01 91.6134C191.43 94.3084 193.085 97.8076 193.83 101.854C194.721 106.704 194.238 112.006 192.431 117.187H192.432ZM165.625 91.4207C164.832 91.8927 164.067 92.4233 163.327 92.9995C163.048 93.2527 162.771 93.5106 162.5 93.7796C162.434 93.8439 162.349 93.8736 162.263 93.8718C159.071 96.6617 156.463 100.405 154.738 104.735C151.75 112.239 151.859 120.259 155.03 126.189C157.251 130.341 160.694 133.019 164.986 133.931C169.833 134.961 175.019 133.481 179.59 129.762C184.03 126.149 187.472 120.667 189.032 114.718C190.463 109.262 190.26 103.686 188.459 99.0159C186.676 94.3894 183.474 91.0372 179.446 89.5776C177.915 89.0228 176.309 88.7482 174.666 88.7482C171.689 88.7482 168.595 89.6502 165.626 91.4207H165.625ZM155.981 136.791C155.684 136.529 155.39 136.259 155.106 135.976C150.93 131.81 148.638 125.855 148.524 119.016C148.495 118.193 148.511 117.36 148.575 116.519C148.575 116.517 148.576 116.515 148.576 116.512C148.578 116.487 148.578 116.463 148.58 116.437C149.162 106.922 153.485 97.8001 160.267 91.5706C155.702 95.041 150.586 97.0945 145.596 97.4176C145.101 97.4492 144.61 97.466 144.122 97.466C142.277 97.466 140.491 97.2332 138.781 96.7827C141.13 98.4611 143.122 100.647 144.697 103.302C149.024 110.594 149.66 120.519 146.398 129.851C146.183 130.466 145.947 131.073 145.702 131.674L155.981 136.792L155.981 136.791ZM111.437 152.09L111.481 152.097C111.509 152.102 111.535 152.111 111.56 152.122C114.099 152.8 116.785 153.002 119.514 152.696C130.676 151.445 141.481 141.962 145.79 129.637C148.99 120.483 148.374 110.761 144.143 103.63C142.057 100.114 139.216 97.4455 135.77 95.7224C135.502 95.6023 135.236 95.4776 134.972 95.3454C133.327 94.6119 131.555 94.0822 129.668 93.7712C128.319 93.5488 126.968 93.4389 125.621 93.4389C119.115 93.4389 112.728 96.011 107.293 100.89C99.2745 108.088 94.6684 119.289 95.2735 130.121C95.3219 130.991 95.4075 131.846 95.5258 132.685C96.2891 137.439 98.702 141.746 102.474 145.002C104.525 146.771 106.879 148.159 109.369 149.111C109.387 149.114 109.404 149.117 109.422 149.124C111.814 149.965 113.403 150.025 114.704 150.016C126.004 149.923 137.405 141.031 141.811 128.87C145.724 118.076 143.642 106.64 136.631 100.413C134.842 98.8251 132.598 97.6819 130.107 97.0489C130.083 97.0433 130.06 97.0368 130.036 97.0312C128.105 96.549 126.03 96.3703 123.906 96.5276C122.293 96.6486 120.677 96.9521 119.104 97.4315C117.909 97.7946 116.751 98.2516 115.631 98.7999C119.806 97.183 124.132 96.9931 128.018 98.3C132.822 99.9142 136.596 103.702 138.646 108.965C140.665 114.149 140.838 120.285 139.132 126.242C135.736 138.11 125.696 146.732 115.701 146.732C115.061 146.732 114.42 146.697 113.782 146.625C108.784 146.06 104.459 143.35 101.604 138.996C97.7971 133.19 97.0096 125.306 99.4439 117.367C101.196 111.655 104.39 106.699 108.515 103.133C111.549 100.118 115.047 97.991 118.916 96.8143C120.534 96.3219 122.197 96.0091 123.857 95.8844C125.847 95.7373 127.795 95.8788 129.631 96.2781C129.653 96.2781 129.676 96.28 129.7 96.2856C135.833 97.627 140.621 101.122 143.543 106.391C147.173 112.935 147.597 121.73 144.678 129.915C140.639 141.24 130.263 149.963 119.446 151.13C118.721 151.208 117.99 151.246 117.256 151.246C111.865 151.246 106.316 149.172 102.051 145.491C100.497 144.149 99.1665 142.634 98.0792 140.985C99.4383 143.671 101.259 146.014 103.491 147.901C105.842 149.887 108.542 151.299 111.437 152.091V152.09ZM142.417 129.09C138.143 140.885 127.398 149.665 116.415 150.581C117.408 150.621 118.399 150.592 119.376 150.487C129.956 149.346 140.11 140.797 144.069 129.697C146.927 121.684 146.519 113.088 142.978 106.703C141.672 104.349 139.977 102.366 137.95 100.779C141.015 103.863 143.09 107.967 143.971 112.735C144.937 117.964 144.4 123.619 142.417 129.09ZM113.783 100.331C112.064 101.215 110.445 102.319 108.951 103.608C108.938 103.621 108.925 103.633 108.913 103.645C108.894 103.665 108.873 103.681 108.851 103.695C104.858 107.175 101.766 111.998 100.062 117.555C97.6836 125.31 98.4432 132.995 102.144 138.64C104.892 142.832 109.052 145.439 113.856 145.982C124.149 147.146 134.982 138.396 138.512 126.063C141.961 114.013 137.261 102.087 127.813 98.9107C126.162 98.3559 124.428 98.0813 122.658 98.0813C119.721 98.0813 116.69 98.839 113.784 100.331H113.783ZM11.7345 91.714C28.0689 101.687 44.2384 111.826 59.8755 121.631C74.1423 130.577 88.8792 139.815 103.732 148.924C103.51 148.751 103.29 148.575 103.074 148.392C98.6433 144.647 95.7892 139.17 94.8872 132.78C94.7531 131.946 94.6675 131.098 94.634 130.241C94.634 130.239 94.634 130.236 94.634 130.234C94.6321 130.208 94.6303 130.182 94.6284 130.156C94.0131 119.133 98.701 107.735 106.862 100.409C113.412 94.5281 121.325 91.929 129.204 93.0489L32.5204 50.9196C26.7889 48.422 20.3117 48.395 14.7506 50.8461C10.0747 52.9071 6.27115 56.3076 3.75031 60.6809C2.48242 62.8806 1.58319 65.2637 1.07959 67.7631C-0.794312 77.0553 3.48779 86.6807 11.7336 91.7159L11.7345 91.714Z" fill="#2A2A2A"/>
<path d="M362.445 78H348.51L327.526 48.6712V78H315.292V20.1526H327.526V48.1851L348.266 20.1526H361.31L340.246 47.942L362.445 78Z" fill="#2A2A2A"/>
<path d="M399.055 61.067C397.435 64.7399 395.706 67.9266 393.87 70.6273C392.087 73.2739 389.792 75.2993 386.983 76.7037C384.175 78.108 380.502 78.8101 375.965 78.8101C374.56 78.8101 373.021 78.7021 371.347 78.4861C369.672 78.27 368.133 77.973 366.729 77.5949V67.0624C368.025 67.6026 369.456 67.9806 371.023 68.1967C372.589 68.4127 374.047 68.5208 375.398 68.5208C377.18 68.5208 378.611 68.2237 379.692 67.6296C380.826 67.0354 381.717 66.2252 382.365 65.199C383.067 64.1188 383.635 62.9575 384.067 61.7152L364.055 20.1526H377.018L387.793 45.1874C388.064 45.7275 388.388 46.4297 388.766 47.2939C389.144 48.1581 389.522 49.0493 389.9 49.9675C390.278 50.8857 390.575 51.6959 390.791 52.398H391.196C391.412 51.7499 391.682 50.9667 392.006 50.0485C392.385 49.0763 392.763 48.104 393.141 47.1318C393.573 46.1056 393.951 45.2144 394.275 44.4582L404.321 20.1526H416.96L399.055 61.067Z" fill="#2A2A2A"/>
<path d="M425.069 78V20.1526H470.845V78H458.611V30.361H437.303V78H425.069Z" fill="#2A2A2A"/>
<path d="M486.248 20.1526H497.266V48.104C497.266 49.4544 497.239 50.9667 497.185 52.6411C497.131 54.3155 497.077 55.9629 497.023 57.5832C496.969 59.1496 496.915 60.5269 496.861 61.7152C496.807 62.8495 496.753 63.6326 496.699 64.0647H496.942L523.678 20.1526H538.343V78H527.405V50.2105C527.405 48.7522 527.432 47.1588 527.486 45.4304C527.54 43.648 527.594 41.9466 527.648 40.3263C527.756 38.7059 527.837 37.3016 527.891 36.1133C527.999 34.871 528.08 34.0608 528.134 33.6827H527.81L500.993 78H486.248V20.1526Z" fill="#2A2A2A"/>
<path d="M576.036 78H563.802V30.361H548.085V20.1526H591.754V30.361H576.036V78Z" fill="#2A2A2A"/>
<path d="M601.484 78V20.1526H613.718V42.3517H618.579C624.034 42.3517 628.49 43.1079 631.947 44.6202C635.458 46.1326 638.051 48.2121 639.725 50.8587C641.399 53.5053 642.237 56.53 642.237 59.9328C642.237 63.7137 641.399 66.9544 639.725 69.655C638.051 72.3557 635.458 74.4351 631.947 75.8935C628.436 77.2978 623.899 78 618.336 78H601.484ZM617.85 67.9536C621.577 67.9536 624.493 67.3595 626.6 66.1712C628.76 64.983 629.841 62.9035 629.841 59.9328C629.841 57.8803 629.301 56.3139 628.22 55.2337C627.194 54.1534 625.709 53.4243 623.764 53.0462C621.874 52.6141 619.578 52.398 616.878 52.398H613.718V67.9536H617.85Z" fill="#2A2A2A"/>
<path d="M322.474 129.49L316.123 108.814H315.976C316 109.306 316.037 110.044 316.086 111.029C316.136 112.014 316.185 113.072 316.234 114.204C316.283 115.312 316.308 116.321 316.308 117.232V129.49H311.323V103.127H318.929L325.169 123.287H325.28L331.889 103.127H339.496V129.49H334.289V117.01C334.289 116.174 334.302 115.214 334.326 114.13C334.376 113.047 334.412 112.026 334.437 111.066C334.486 110.081 334.523 109.343 334.548 108.85H334.4L327.606 129.49H322.474Z" fill="#2A2A2A"/>
<path d="M361.7 129.49H346.524V103.127H361.7V107.706H352.1V113.503H361.035V118.081H352.1V124.875H361.7V129.49Z" fill="#2A2A2A"/>
<path d="M377.708 129.49H372.133V107.78H364.97V103.127H384.871V107.78H377.708V129.49Z" fill="#2A2A2A"/>
<path d="M402.845 129.49L400.925 123.214H391.325L389.405 129.49H383.387L392.691 103.017H399.522L408.864 129.49H402.845ZM397.676 112.395C397.553 111.977 397.393 111.447 397.196 110.807C396.999 110.167 396.802 109.515 396.605 108.85C396.408 108.186 396.248 107.607 396.125 107.115C396.002 107.607 395.83 108.223 395.608 108.961C395.411 109.675 395.214 110.364 395.017 111.029C394.845 111.669 394.71 112.124 394.611 112.395L392.728 118.524H399.596L397.676 112.395Z" fill="#2A2A2A"/>
<path d="M433.433 129.49H427.858V107.78H421.396C421.249 108.912 421.089 110.143 420.916 111.472C420.769 112.801 420.596 114.155 420.399 115.534C420.227 116.887 420.043 118.18 419.846 119.41C419.649 120.617 419.452 121.687 419.255 122.623C418.935 124.149 418.504 125.454 417.963 126.537C417.446 127.62 416.719 128.444 415.784 129.01C414.873 129.577 413.679 129.86 412.203 129.86C411.71 129.86 411.243 129.823 410.799 129.749C410.356 129.675 409.938 129.577 409.544 129.454V124.875C409.864 124.974 410.172 125.06 410.467 125.134C410.787 125.207 411.132 125.244 411.501 125.244C411.993 125.244 412.399 125.084 412.719 124.764C413.039 124.444 413.323 123.903 413.569 123.14C413.815 122.352 414.061 121.269 414.307 119.89C414.43 119.3 414.578 118.463 414.75 117.38C414.923 116.272 415.119 114.98 415.341 113.503C415.587 112.001 415.833 110.377 416.079 108.629C416.326 106.857 416.559 105.023 416.781 103.127H433.433V129.49Z" fill="#2A2A2A"/>
<path d="M461.315 129.49H455.739V107.78H449.278C449.13 108.912 448.97 110.143 448.798 111.472C448.65 112.801 448.478 114.155 448.281 115.534C448.108 116.887 447.924 118.18 447.727 119.41C447.53 120.617 447.333 121.687 447.136 122.623C446.816 124.149 446.385 125.454 445.844 126.537C445.327 127.62 444.601 128.444 443.665 129.01C442.755 129.577 441.561 129.86 440.084 129.86C439.592 129.86 439.124 129.823 438.681 129.749C438.238 129.675 437.819 129.577 437.425 129.454V124.875C437.745 124.974 438.053 125.06 438.348 125.134C438.668 125.207 439.013 125.244 439.382 125.244C439.875 125.244 440.281 125.084 440.601 124.764C440.921 124.444 441.204 123.903 441.45 123.14C441.696 122.352 441.942 121.269 442.188 119.89C442.312 119.3 442.459 118.463 442.632 117.38C442.804 116.272 443.001 114.98 443.222 113.503C443.468 112.001 443.715 110.377 443.961 108.629C444.207 106.857 444.441 105.023 444.662 103.127H461.315V129.49Z" fill="#2A2A2A"/>
<path d="M492.26 116.272C492.26 118.315 492.002 120.174 491.485 121.847C490.993 123.497 490.23 124.924 489.196 126.13C488.187 127.337 486.882 128.26 485.282 128.9C483.707 129.54 481.848 129.86 479.707 129.86C477.565 129.86 475.694 129.54 474.094 128.9C472.519 128.235 471.214 127.312 470.18 126.13C469.171 124.924 468.408 123.484 467.891 121.81C467.399 120.137 467.153 118.278 467.153 116.235C467.153 113.503 467.596 111.127 468.482 109.109C469.393 107.09 470.771 105.527 472.617 104.42C474.488 103.287 476.864 102.721 479.744 102.721C482.599 102.721 484.95 103.287 486.796 104.42C488.642 105.527 490.008 107.103 490.894 109.146C491.805 111.164 492.26 113.54 492.26 116.272ZM473.024 116.272C473.024 118.118 473.257 119.706 473.725 121.035C474.193 122.364 474.919 123.386 475.904 124.1C476.888 124.814 478.156 125.17 479.707 125.17C481.307 125.17 482.587 124.814 483.547 124.1C484.531 123.386 485.245 122.364 485.688 121.035C486.156 119.706 486.39 118.118 486.39 116.272C486.39 113.49 485.873 111.312 484.839 109.737C483.805 108.161 482.107 107.374 479.744 107.374C478.168 107.374 476.888 107.73 475.904 108.444C474.919 109.158 474.193 110.18 473.725 111.509C473.257 112.838 473.024 114.426 473.024 116.272Z" fill="#2A2A2A"/>
<path d="M498.091 129.49V103.127H518.952V129.49H513.377V107.78H503.666V129.49H498.091Z" fill="#2A2A2A"/>
<path d="M534.39 103.127C537.787 103.127 540.261 103.866 541.812 105.343C543.387 106.795 544.175 108.801 544.175 111.361C544.175 112.518 544.003 113.626 543.658 114.684C543.313 115.718 542.735 116.654 541.923 117.49C541.135 118.303 540.089 118.943 538.784 119.41C537.479 119.878 535.867 120.112 533.947 120.112H531.547V129.49H525.972V103.127H534.39ZM534.095 107.706H531.547V115.534H533.393C534.452 115.534 535.363 115.398 536.126 115.127C536.889 114.857 537.479 114.426 537.898 113.835C538.316 113.244 538.526 112.481 538.526 111.546C538.526 110.241 538.169 109.281 537.455 108.666C536.741 108.026 535.621 107.706 534.095 107.706Z" fill="#2A2A2A"/>
<path d="M573.452 116.272C573.452 118.315 573.194 120.174 572.677 121.847C572.185 123.497 571.422 124.924 570.388 126.13C569.378 127.337 568.074 128.26 566.474 128.9C564.898 129.54 563.04 129.86 560.898 129.86C558.757 129.86 556.886 129.54 555.286 128.9C553.711 128.235 552.406 127.312 551.372 126.13C550.363 124.924 549.6 123.484 549.083 121.81C548.591 120.137 548.345 118.278 548.345 116.235C548.345 113.503 548.788 111.127 549.674 109.109C550.585 107.09 551.963 105.527 553.809 104.42C555.68 103.287 558.055 102.721 560.935 102.721C563.791 102.721 566.142 103.287 567.988 104.42C569.834 105.527 571.2 107.103 572.086 109.146C572.997 111.164 573.452 113.54 573.452 116.272ZM554.215 116.272C554.215 118.118 554.449 119.706 554.917 121.035C555.385 122.364 556.111 123.386 557.095 124.1C558.08 124.814 559.348 125.17 560.898 125.17C562.498 125.17 563.778 124.814 564.738 124.1C565.723 123.386 566.437 122.364 566.88 121.035C567.348 119.706 567.582 118.118 567.582 116.272C567.582 113.49 567.065 111.312 566.031 109.737C564.997 108.161 563.298 107.374 560.935 107.374C559.36 107.374 558.08 107.73 557.095 108.444C556.111 109.158 555.385 110.18 554.917 111.509C554.449 112.838 554.215 114.426 554.215 116.272Z" fill="#2A2A2A"/>
<path d="M600.772 129.49H594.421L584.858 116.124V129.49H579.282V103.127H584.858V115.903L594.31 103.127H600.255L590.655 115.792L600.772 129.49Z" fill="#2A2A2A"/>
<path d="M620.595 129.49L618.675 123.214H609.075L607.155 129.49H601.136L610.441 103.017H617.272L626.613 129.49H620.595ZM615.425 112.395C615.302 111.977 615.142 111.447 614.945 110.807C614.749 110.167 614.552 109.515 614.355 108.85C614.158 108.186 613.998 107.607 613.875 107.115C613.752 107.607 613.579 108.223 613.358 108.961C613.161 109.675 612.964 110.364 612.767 111.029C612.595 111.669 612.459 112.124 612.361 112.395L610.478 118.524H617.345L615.425 112.395Z" fill="#2A2A2A"/>
<path d="M637.879 129.49H632.304V107.78H625.141V103.127H645.042V107.78H637.879V129.49Z" fill="#2A2A2A"/>
</svg>
