<svg width="100" height="55" viewBox="0 0 100 55" fill="none" xmlns="http://www.w3.org/2000/svg">
<path d="M80.494 12.2589C78.9712 14.3987 78.0852 17.1848 78.0637 19.9017C78.0611 20.2404 78.0721 20.5798 78.0966 20.9103C78.2501 22.9785 78.9487 24.854 80.0642 26.1912C80.3957 26.5891 80.7608 26.9333 81.1506 27.2234L80.8627 27.1202C80.7621 27.0718 80.6593 27.0284 80.5536 26.9915L76.3157 25.5167C76.8282 24.5356 77.2278 23.4763 77.4907 22.3762C78.3383 18.8277 77.7295 15.2045 75.9018 12.921C74.9042 11.6746 73.627 10.8982 72.1589 10.6336L38.3743 3.27077C38.6873 2.68121 39.2405 1.896 40.1659 1.26626C40.2105 1.23588 40.255 1.20648 40.2993 1.17807C41.4033 0.47255 42.7455 0.226273 44.078 0.484309L86.103 8.62845C84.0069 8.829 82.0237 10.1094 80.4943 12.2583L80.494 12.2589Z" fill="#FFE500"/>
<path d="M76.0986 21.7327C76.6736 19.5789 76.5929 17.4728 75.8588 15.4729C75.5223 14.5557 75.0499 13.7669 74.4694 13.1349C74.4886 13.1522 74.5078 13.1685 74.527 13.1862C74.5725 13.2283 74.6656 13.3158 74.7769 13.4328C75.2845 13.9648 75.715 14.6344 76.057 15.4229C76.6036 16.684 77.1441 18.7905 76.6127 21.6631C76.3937 22.8472 75.9863 25.0506 74.1495 27.0861C73.3348 27.9889 71.4273 30.1055 68.6528 30.0735C68.0892 30.0676 67.523 29.9713 66.9699 29.7903C67.3668 29.8746 67.8077 29.9327 68.2698 29.9327C68.2844 29.9327 68.2988 29.9327 68.3134 29.9327C71.6675 29.9063 75.0463 25.6712 76.098 21.7324L76.0986 21.7327Z" fill="#2A2A2A"/>
<path d="M91.101 23.6337L93.4028 24.3467C92.0935 24.3614 90.8033 24.8112 89.6085 25.6633C90.1675 25.0597 90.6683 24.3761 91.101 23.6337Z" fill="#FFE500"/>
<path d="M69.9453 12.075C71.24 12.075 72.4053 12.5985 73.3316 13.601C74.8053 15.1956 75.4577 17.7906 75.077 20.5425C74.4721 24.9134 71.4301 28.4286 68.1515 28.5448C66.8711 28.5899 65.6915 28.1055 64.7365 27.1433C63.3751 25.7714 62.6485 23.5948 62.7429 21.1719C62.8301 18.9361 63.6175 16.6732 64.9028 14.9637C65.6333 13.9923 66.4777 13.2453 67.3826 12.7543C67.3972 12.7521 67.4112 12.7465 67.4246 12.7383C67.4464 12.7243 67.4688 12.7112 67.4909 12.6975C68.1804 12.3408 68.9031 12.1318 69.6365 12.0854C69.7403 12.0789 69.8438 12.0756 69.9463 12.0756L69.9453 12.075Z" fill="#2A2A2A"/>
<path d="M88.5331 11.3097C89.943 12.7668 90.5873 15.2347 90.2567 17.9124C89.7305 22.1746 86.8382 25.6418 83.8095 25.6418C82.7132 25.6418 81.7035 25.1825 80.8898 24.3134C79.6286 22.9664 78.9892 20.8296 79.1362 18.4511C79.4037 14.1229 82.1542 10.3608 85.2678 10.0652C85.4006 10.0525 85.5324 10.0463 85.6625 10.0463C86.7431 10.0463 87.7287 10.4784 88.5331 11.3093V11.3097Z" fill="#2A2A2A"/>
<path d="M88.416 24.5535C89.7377 23.0315 90.7728 21.0358 91.2556 19.0783C91.773 16.981 91.6689 14.9523 90.9462 13.0487C90.642 12.2475 90.2307 11.5577 89.7332 11.0001C89.7787 11.0423 89.8373 11.0981 89.9046 11.1664C90.3807 11.6504 90.789 12.2681 91.1187 13.0023C91.6568 14.2007 92.2012 16.2177 91.7398 19.0192C91.5462 20.1937 91.1863 22.3802 89.438 24.3814C88.6652 25.2662 86.8558 27.3384 84.2608 27.1907C83.7486 27.1617 83.2375 27.0457 82.7409 26.8481C83.1063 26.9464 83.5124 27.0193 83.94 27.0343C83.9793 27.0356 84.0194 27.0362 84.0591 27.0362C85.4797 27.0362 87.0214 26.1589 88.416 24.5529V24.5535Z" fill="#2A2A2A"/>
<path d="M84.2359 28.0742C83.5344 28.0624 82.8693 27.9086 82.2553 27.6316C82.2435 27.6199 82.2296 27.6101 82.2133 27.6042L82.1544 27.5833C80.6641 26.8715 79.4856 25.4249 78.8381 23.5083C79.0268 23.8947 79.2467 24.2608 79.4976 24.6018C79.7511 24.9461 80.2232 25.5872 81.0709 26.1357C81.0787 26.1406 81.1132 26.1628 81.1704 26.1964C82.114 26.9346 83.1774 27.3566 84.247 27.4173C84.34 27.4226 84.4328 27.4252 84.5239 27.4252C87.0791 27.4252 88.8398 25.4096 89.6067 24.5313C91.3973 22.4813 91.7644 20.2534 91.9616 19.0566C92.4324 16.199 91.8744 14.1367 91.3235 12.9095C90.9828 12.1508 90.5591 11.5109 90.0646 11.0076C89.9565 10.8975 89.8657 10.8148 89.8215 10.7753C89.007 10.0466 88.1496 9.7471 87.6928 9.63082L87.6814 9.61971L87.6469 9.61906C87.3996 9.55929 86.7729 9.43811 85.977 9.50768C85.009 9.59195 84.0494 9.94209 83.2021 10.5199C83.1963 10.5238 83.1914 10.5284 83.1865 10.533C80.8938 11.8819 79.1237 14.9839 78.9103 18.4367C78.7596 20.8773 79.4208 23.0755 80.7246 24.4679C81.582 25.3838 82.6487 25.8678 83.809 25.8678C85.3259 25.8678 86.854 25.0506 88.1116 23.5664C89.3754 22.075 90.2165 20.0767 90.4804 17.9396C90.8194 15.1946 90.1518 12.657 88.6947 11.1513C87.768 10.1936 86.6109 9.73958 85.3435 9.83267C85.5599 9.78564 85.7782 9.752 85.9969 9.73305C86.7713 9.66544 87.3762 9.78564 87.6046 9.84149C88.9891 10.2913 90.1007 11.4586 90.7348 13.129C91.4409 14.9885 91.5421 16.9715 91.0362 19.0233C90.1069 22.7897 86.9691 26.915 83.9473 26.8079C82.4625 26.7559 81.2062 25.9531 81.1935 25.9449C80.3807 25.4187 79.9245 24.7994 79.6795 24.4666C78.9373 23.4583 78.4674 22.2213 78.3213 20.889C78.3213 20.888 78.321 20.8874 78.3207 20.8864C78.2969 20.5644 78.2862 20.2335 78.2888 19.9033C78.3099 17.2315 79.1804 14.493 80.6771 12.3902C82.2276 10.2119 84.2486 8.94947 86.3678 8.83515C86.4729 8.8296 86.5774 8.82666 86.6805 8.82666C88.2681 8.82666 89.6676 9.49069 90.744 10.7593C92.4981 12.8265 93.1274 16.2444 92.3862 19.6789C91.8744 22.0515 90.7401 24.2151 89.1925 25.7708C87.6876 27.2838 85.9295 28.1042 84.2359 28.0735V28.0742Z" fill="#FFE500"/>
<path d="M59.6169 28.1702L63.6016 29.8049C63.57 29.7991 63.5388 29.7929 63.5069 29.7876C61.3021 29.411 58.9886 30.046 56.9653 31.5769C56.9676 31.5746 56.9699 31.5727 56.9725 31.5707C58.0195 30.6075 58.9163 29.447 59.6169 28.1702Z" fill="#FFE500"/>
<path d="M85.7488 38.8706C86.0146 39.339 86.3381 39.7731 86.7178 40.1631C87.0595 40.5139 87.4356 40.8127 87.8329 41.0574C87.8391 41.0629 87.8456 41.0682 87.8531 41.0724C87.8716 41.0829 87.8892 41.0923 87.9074 41.1025C88.6779 41.5597 89.5259 41.8096 90.3625 41.8096C90.3774 41.8096 90.3924 41.8096 90.4074 41.8096C93.41 41.7776 96.5132 39.0852 97.7858 35.4077C98.7731 32.5546 98.6097 29.5493 97.3596 27.5647C96.5477 26.2762 95.3285 25.4887 93.8269 25.2754C93.8207 25.2744 93.8148 25.2737 93.8086 25.2728C93.7546 25.2653 93.7013 25.2568 93.6466 25.2509C93.6424 25.2506 93.6385 25.2509 93.6342 25.2509C93.1523 25.198 92.6437 25.2231 92.1274 25.3322C91.7079 25.4207 91.2895 25.5608 90.8841 25.7483C89.8477 26.2278 88.9216 26.9928 88.1316 28.0223C87.2534 29.0329 86.5603 30.3077 86.1334 31.721C85.413 34.1067 85.5584 36.576 86.5216 38.3258C87.1255 39.4226 88.0037 40.1556 89.0612 40.4459C89.3964 40.5377 89.7367 40.5821 90.0787 40.5821C92.6639 40.5821 95.3279 38.0482 96.3369 34.4161C96.9929 32.0555 96.8006 29.6368 95.8228 27.9456C95.2045 26.8762 94.3221 26.1703 93.2711 25.9041C92.3825 25.6791 91.4349 25.7846 90.5066 26.1981C90.6612 26.1099 90.8183 26.0279 90.9784 25.9538C91.3686 25.7732 91.7707 25.6386 92.1739 25.5533C92.7173 25.4387 93.2506 25.4207 93.7501 25.4929C93.7634 25.4945 93.7764 25.4965 93.7898 25.4981C94.4402 25.5987 95.0311 25.8545 95.5072 26.254C97.5678 27.9828 98.119 31.5166 96.8793 35.0471C95.515 38.932 92.2243 41.6166 89.2272 41.2929C88.9187 41.2592 88.5458 41.1975 88.0128 40.9013C87.6087 40.6599 87.2261 40.3597 86.8798 40.0043C85.8308 38.9271 85.2191 37.5007 85.1211 35.9332C85.1205 35.9169 85.1195 35.9003 85.1188 35.8839C85.1175 35.8598 85.1172 35.8356 85.1162 35.8114C85.1094 35.6141 85.1075 35.4146 85.1117 35.2124C85.1774 32.0078 86.5828 28.7239 88.7791 26.642C90.2108 25.2848 91.829 24.5721 93.4712 24.5721C93.5408 24.5721 93.6105 24.5734 93.6801 24.5761C95.2755 24.6349 96.6031 25.3717 97.519 26.7076C98.9715 28.8258 99.1996 32.127 98.1148 35.3234C97.4442 37.2989 96.2816 39.0878 94.8408 40.3613C93.4432 41.5963 91.8719 42.2806 90.4155 42.2884C89.1403 42.2917 87.9702 41.7943 87.0341 40.8402C86.4982 40.2937 86.0674 39.6281 85.7501 38.8703L85.7488 38.8706Z" fill="#FFE500"/>
<path d="M59.3857 24.509C60.0466 22.3259 60.0141 20.1557 59.2891 18.0585C58.9377 17.0417 58.42 16.1539 57.7689 15.4314C57.8213 15.4797 57.8737 15.5291 57.9257 15.5803C58.0354 15.6885 58.1307 15.7917 58.1916 15.8593C58.7255 16.4534 59.171 17.1821 59.5156 18.0245C60.0577 19.3493 60.5718 21.5387 59.9405 24.4467C59.6805 25.6451 59.1967 27.8756 57.1943 29.9592C56.2842 30.9061 54.1529 33.1239 51.0077 33.1964C50.3022 33.212 49.5906 33.1167 48.8949 32.9171C49.3404 32.9984 49.8376 33.0546 50.3605 33.0546C50.4493 33.0546 50.5388 33.053 50.6293 33.0497C54.3634 32.9089 58.1717 28.5197 59.3857 24.509Z" fill="#2A2A2A"/>
<path d="M79.8911 27.0134C79.6923 26.9673 79.4893 26.9307 79.2813 26.9046C77.6808 26.7041 76.0359 27.1218 74.5427 28.0896C75.1766 27.3825 75.7366 26.5835 76.2068 25.7196L78.7015 26.5878L79.8911 27.0137V27.0134Z" fill="#2A2A2A"/>
<path d="M47.0892 14.8644C44.5356 17.0992 42.8065 20.6251 42.5767 24.0662C42.5487 24.4833 42.5445 24.9102 42.5634 25.3348C42.6919 28.1911 43.8646 30.8819 45.7004 32.533C45.7476 32.5755 45.7961 32.6157 45.8443 32.6568L11.7121 17.691C10.3039 17.0734 9.13248 16.0014 8.41435 14.6717C7.05716 12.1589 7.04251 9.14416 8.37595 6.80354C9.69474 4.4884 12.1631 3.01042 14.9784 2.84939C15.5856 2.81444 16.21 2.87813 16.8344 3.03818L53.4424 12.4114C51.1624 12.3716 48.9755 13.2139 47.0892 14.8651V14.8644Z" fill="#FFE500"/>
<path d="M47.6703 33.5492C47.5675 33.4972 47.4631 33.4479 47.3573 33.4005C46.8207 33.1288 46.3161 32.7829 45.8508 32.3641C44.5105 31.1589 43.5324 29.383 43.072 27.3939C43.2008 27.8743 43.3554 28.3362 43.5373 28.7739C44.1851 30.3315 45.4219 31.6266 46.9304 32.3269C46.9408 32.3318 46.9877 32.3534 47.0658 32.3857C48.2551 33.0667 49.5605 33.4247 50.8526 33.4247C50.9063 33.4247 50.9597 33.4241 51.0134 33.4228C54.2516 33.3483 56.4278 31.0834 57.3571 30.1163C59.4038 27.9864 59.8968 25.715 60.1613 24.4947C60.8049 21.5296 60.2791 19.2925 59.7246 17.938C59.37 17.0714 58.9105 16.3208 58.3593 15.7071C58.2965 15.6372 58.1976 15.5301 58.084 15.418C57.1378 14.4842 56.1014 14.0282 55.5512 13.8355L55.5415 13.8254L55.5099 13.8212C55.2066 13.7176 54.4234 13.4864 53.4037 13.4563C52.1363 13.4191 50.8595 13.7094 49.7134 14.2964C49.7021 14.3023 49.6923 14.3101 49.6838 14.3189C48.5147 14.7687 47.4146 15.5533 46.4602 16.637C44.8675 18.4462 43.8806 20.9305 43.753 23.4531C43.6193 26.1001 44.4454 28.5188 46.02 30.0895C47.1588 31.2255 48.6208 31.8399 50.1677 31.8399C50.2796 31.8399 50.3915 31.8366 50.5041 31.8301C52.3253 31.7259 54.1328 30.7898 55.5938 29.1949C57.0538 27.6006 58.0316 25.4945 58.3463 23.2643C58.7374 20.4932 58.0909 17.8629 56.5723 16.0471C55.4347 14.687 53.9334 13.9378 52.2306 13.8809C51.9401 13.8711 51.6505 13.8822 51.3628 13.9123C52.0282 13.7415 52.7142 13.6631 53.3968 13.683C54.3971 13.7124 55.1611 13.941 55.4471 14.0393C57.1173 14.7403 58.4058 16.1938 59.0755 18.1323C59.7842 20.1832 59.8157 22.3066 59.1692 24.4428C57.9779 28.379 54.2584 32.6856 50.6203 32.8231C48.7181 32.8952 47.041 32.1287 47.0244 32.1208C45.5664 31.444 44.3709 30.1921 43.7449 28.686C43.1263 27.1982 42.8165 25.4276 42.8491 23.5651C42.8491 23.5622 42.8484 23.5596 42.8484 23.557C43.2054 20.3436 44.8561 17.1181 47.2366 15.0346C49.0379 13.4579 51.1188 12.6355 53.2875 12.6355C53.4886 12.6355 53.69 12.6427 53.8924 12.6567C54.3147 12.6865 54.7241 12.7475 55.1191 12.84L55.1686 12.8527C55.1686 12.8527 55.1712 12.8527 55.1725 12.8534C56.8622 13.2616 58.2864 14.2399 59.3387 15.729C61.0704 18.1797 61.5452 21.6929 60.6087 25.1264C60.3367 26.1236 59.954 27.0738 59.4816 27.9573C59.4747 27.9658 59.4689 27.9749 59.4646 27.9854C59.4637 27.988 59.463 27.9906 59.4624 27.9932C57.595 31.46 54.3434 33.8937 50.9746 34.1129C49.7964 34.1897 48.681 33.9963 47.67 33.5485L47.6703 33.5492Z" fill="#FFE500"/>
<path d="M68.6355 30.9491C65.8782 31.0324 63.5676 29.2226 62.475 26.3394C62.7245 26.8072 63.0216 27.2449 63.3636 27.6443C63.6577 27.9879 64.205 28.6278 65.162 29.1514C65.1708 29.1563 65.2098 29.1772 65.2743 29.2092C66.3246 29.9105 67.4915 30.2874 68.6502 30.2998C68.67 30.2998 68.6902 30.2998 68.7104 30.2998C71.5536 30.2998 73.4874 28.1568 74.3164 27.2377C76.1962 25.1544 76.6114 22.9098 76.8343 21.7036C77.3761 18.7744 76.8229 16.6219 76.2636 15.3317C75.9112 14.5184 75.4657 13.8266 74.9396 13.2753C74.8237 13.1538 74.7268 13.0623 74.6793 13.0186C73.7978 12.204 72.8568 11.8502 72.355 11.7088L72.3449 11.6983L72.3091 11.6961C72.0365 11.6222 71.3385 11.4664 70.445 11.5151C69.3797 11.5732 68.3222 11.9133 67.3795 12.4979C66.4063 13.0029 65.5001 13.7907 64.7218 14.8258C63.39 16.5971 62.6067 18.8472 62.5163 21.1614C62.4193 23.6474 63.17 25.8851 64.5757 27.3017C65.5333 28.2665 66.7089 28.7728 67.9857 28.7728C68.0433 28.7728 68.1009 28.7718 68.1588 28.7699C71.5438 28.6497 74.6806 25.0489 75.3001 20.5722C75.6902 17.7537 75.016 15.0897 73.4968 13.4455C72.4497 12.3124 71.1101 11.7627 69.6211 11.8574C69.5944 11.859 69.5674 11.8617 69.5407 11.8639C69.844 11.7996 70.1505 11.7578 70.4574 11.7411C71.3297 11.6934 72.0065 11.8476 72.261 11.9172C73.7815 12.4535 74.9838 13.7434 75.6466 15.5499C76.3641 17.5051 76.4425 19.5652 75.8799 21.6729C75.3603 23.6196 74.2732 25.614 72.8974 27.1442C71.4234 28.7839 69.7949 29.6933 68.3118 29.705C68.2981 29.705 68.2844 29.705 68.2708 29.705C66.6676 29.705 65.2837 28.959 65.27 28.9515C64.3495 28.4475 63.8195 27.8282 63.5347 27.4957C62.6585 26.4717 62.0835 25.1894 61.8723 23.7881C61.8723 23.7868 61.8717 23.7859 61.8714 23.7849C61.8333 23.4426 61.8099 23.0905 61.8021 22.7377C61.7249 19.2715 63.0333 15.7867 65.3019 13.4157C66.9305 11.7137 68.8568 10.7949 70.8729 10.7583C70.9139 10.7577 70.9549 10.7573 70.9959 10.7573C71.3873 10.7573 71.7677 10.7919 72.1357 10.8596L72.492 10.9373C72.4943 10.9379 72.4966 10.9376 72.4992 10.938C73.7539 11.2515 74.8507 11.9694 75.725 13.062C77.5098 15.2922 78.102 18.8407 77.2703 22.3226C76.1227 27.1273 72.4107 30.8355 68.6352 30.9482L68.6355 30.9491Z" fill="#FFE500"/>
<path d="M52.2242 14.1071C53.8609 14.1617 55.3053 14.8829 56.4006 16.1926C57.8778 17.959 58.5061 20.525 58.1238 23.2324C57.4906 27.718 54.1385 31.3952 50.4922 31.6042C48.8867 31.696 47.3551 31.1012 46.1798 29.929C44.6508 28.4036 43.8488 26.0476 43.9792 23.4647C44.1042 20.9924 45.0706 18.5584 46.6302 16.7871C48.1588 15.0511 50.0662 14.1035 52.0218 14.1035C52.0892 14.1035 52.1565 14.1045 52.2239 14.1068L52.2242 14.1071Z" fill="#2A2A2A"/>
<path d="M65.1392 13.26C62.8299 15.6735 61.4981 19.2187 61.5765 22.744C61.5846 23.1059 61.6087 23.4674 61.6477 23.8189C61.8882 25.9697 62.7264 27.8867 64.0075 29.2164C64.393 29.6165 64.8141 29.9592 65.2615 30.2411L59.7241 27.9694C60.1903 27.0858 60.5639 26.1504 60.8268 25.1865C61.7808 21.6883 61.2937 18.1039 59.5233 15.5983C58.4258 14.0449 56.9355 13.0304 55.1664 12.6185L24.1114 4.66707C24.4902 4.01937 25.1595 3.14825 26.2593 2.49303C26.6277 2.27354 27.021 2.09356 27.4281 1.95769C28.4257 1.62518 29.5207 1.57292 30.5954 1.80711L70.6636 10.5392C68.6611 10.6333 66.755 11.5707 65.1395 13.2597L65.1392 13.26Z" fill="#FFE500"/>
<path d="M68.0586 32.926C67.6503 32.2472 67.1576 31.6678 66.5921 31.1939C66.4021 30.9744 66.1841 30.7797 65.9462 30.6138C66.7363 30.9832 67.5888 31.1782 68.4641 31.1782C68.5233 31.1782 68.5825 31.1772 68.6417 31.1756C69.9436 31.1367 71.2761 30.6771 72.5171 29.8563C70.5749 32.0552 69.3901 35.1438 69.3628 38.2177C69.3628 38.2255 69.3628 38.2333 69.3628 38.2412C69.3628 38.2422 69.3628 38.2428 69.3625 38.2438C69.3563 38.5159 69.3644 38.785 69.3862 39.0502C69.5294 41.2654 70.3295 43.1576 71.6805 44.4396C71.8058 44.5585 71.9353 44.6702 72.0677 44.776L68.0856 43.1213C68.3183 42.6288 68.522 42.1189 68.6925 41.5943C69.6989 38.4979 69.462 35.2574 68.059 32.926H68.0586Z" fill="#FFE500"/>
<path d="M34.3802 49.626C34.7606 50.2044 35.2256 50.7362 35.7686 51.2068C37.2592 52.4983 39.1989 53.2264 41.0832 53.2264C41.3399 53.2264 41.5954 53.213 41.8488 53.1856C45.6298 52.7766 49.2566 49.7155 50.6684 45.7417C51.6889 42.8697 51.5405 39.784 50.2718 37.4878C49.2501 35.6391 47.5769 34.4129 45.433 33.9419C45.4248 33.9403 45.417 33.9393 45.4089 33.9393C44.7672 33.7992 44.0865 33.7496 43.3908 33.8012C42.8103 33.8449 42.2292 33.9543 41.6637 34.1275C40.3114 34.5403 39.0886 35.2863 38.0281 36.3446C36.586 37.5959 35.4696 39.3346 34.8572 41.3391C34.0064 44.1249 34.2816 46.8908 35.6121 48.928C36.6101 50.4559 38.1222 51.4067 39.8692 51.605C40.0921 51.6301 40.3159 51.6426 40.5398 51.6426C44.0338 51.6426 47.5428 48.6173 48.7301 44.4528C49.3262 42.3627 49.2657 40.2099 48.5599 38.3909C47.8434 36.5442 46.524 35.2151 44.8453 34.6488C43.4865 34.1902 41.9744 34.2568 40.5154 34.8242C40.9068 34.6318 41.3119 34.4714 41.7294 34.344C42.2793 34.1761 42.8439 34.0693 43.4078 34.0269C44.1503 33.9717 44.8756 34.034 45.5504 34.2036C45.5589 34.2055 45.567 34.2075 45.5755 34.2098C46.4459 34.4322 47.2304 34.833 47.8558 35.3902C50.3063 37.575 51.0342 41.5876 49.6666 45.3752C48.1262 49.642 44.1412 52.7622 40.1913 52.7946C39.7361 52.7978 39.1807 52.7769 38.3451 52.4817C38.3389 52.4794 38.3327 52.4781 38.3265 52.4771C37.4564 52.1433 36.6332 51.6563 35.9164 51.0354C34.5979 49.8931 33.7545 48.3818 33.4877 46.7137C33.4464 46.4191 33.4167 46.1193 33.3995 45.8139C33.1883 42.0129 34.798 38.0829 37.6009 35.5574C39.5005 33.8456 41.7333 32.9431 44.0074 32.9431C44.478 32.9431 44.9501 32.9817 45.4219 33.0597C46.0815 33.1688 46.701 33.3547 47.276 33.612C47.368 33.6584 47.4611 33.7022 47.5548 33.7443C48.7594 34.3489 49.7525 35.2854 50.4817 36.519C51.9606 39.021 52.176 42.4323 51.0573 45.644C49.5511 49.9689 45.7743 53.2963 41.8726 53.7349C40.9186 53.8424 39.9798 53.7712 39.0925 53.5337C39.0837 53.5298 39.0746 53.5266 39.0648 53.5249L39.0495 53.5223C38.0376 53.2447 37.0936 52.7492 36.272 52.0522C35.4917 51.3901 34.8553 50.568 34.3802 49.6256V49.626Z" fill="#FFE500"/>
<path d="M50.6753 36.4036C50.1247 35.4724 49.4284 34.7052 48.6074 34.1163C49.2048 34.2744 49.8289 34.356 50.4742 34.356C50.6447 34.356 50.8165 34.3505 50.9896 34.339C52.7337 34.2257 54.5217 33.5051 56.1177 32.2875C53.7472 34.4733 52.2361 37.6739 52.0324 41.0127C52.0318 41.0215 52.0318 41.03 52.0311 41.0388C52.0311 41.0398 52.0308 41.0405 52.0308 41.0414C52.0084 41.3364 52.0028 41.6287 52.0129 41.9175C52.0526 44.3175 52.854 46.4066 54.3137 47.8683C54.413 47.9676 54.5155 48.0623 54.6196 48.1544L51.0267 46.3586C51.1129 46.1473 51.1949 45.9346 51.2701 45.7187C52.4102 42.4446 52.188 38.9621 50.6756 36.4033L50.6753 36.4036Z" fill="#FFE500"/>
<path d="M48.3169 35.519C49.0253 36.0759 49.6178 36.7717 50.0743 37.5977C51.3121 39.838 51.4546 42.8541 50.4557 45.6657C49.0718 49.5608 45.5225 52.5602 41.8244 52.9603C41.4825 52.9972 41.1366 53.0077 40.7894 52.9933C44.6286 52.6716 48.3846 49.5908 49.8784 45.4528C50.5715 43.5335 50.7592 41.5489 50.4215 39.7143C50.1133 38.0413 49.3884 36.6012 48.3169 35.519Z" fill="#2A2A2A"/>
<path d="M65.9712 34.9001C66.6005 36.5384 66.6717 38.4953 66.1713 40.4096C65.6259 42.4968 64.4226 44.4209 62.8709 45.6883C61.2732 46.9931 59.4608 47.5125 57.7662 47.1509C56.2662 46.8308 55.0626 45.8914 54.2862 44.4343C53.1776 42.354 53.1395 39.5398 54.184 36.9069C54.787 35.3874 55.6987 34.074 56.8144 33.0951C56.8441 33.0961 56.874 33.0857 56.8971 33.0628C56.9921 32.9684 57.0891 32.8779 57.1864 32.7891C57.445 32.5872 57.7125 32.401 57.9894 32.2351C59.0274 31.6135 60.109 31.2974 61.1496 31.2974C61.7239 31.2974 62.2855 31.3937 62.8204 31.5884C64.2284 32.1005 65.3474 33.2767 65.9708 34.9001H65.9712Z" fill="#2A2A2A"/>
<path d="M97.0925 35.1229C98.2964 31.6943 97.8396 28.2536 95.9754 26.3794C96.4378 26.725 96.8396 27.161 97.1699 27.6853C98.3843 29.613 98.5391 32.5435 97.5737 35.3329C96.3314 38.9235 93.3167 41.5519 90.4061 41.5826C90.207 41.5849 90.0068 41.5702 89.8077 41.5434C92.7333 41.4912 95.7847 38.8465 97.0925 35.1226V35.1229Z" fill="#2A2A2A"/>
<path d="M1.40785 21.4492C2.289 19.9147 3.61853 18.7216 5.25294 17.9984C7.19681 17.1384 9.46085 17.1479 11.4643 18.0242L45.2593 32.8064C42.5055 32.4138 39.7394 33.3258 37.45 35.3887C34.5973 37.9593 32.959 41.9585 33.1738 45.8265C33.1744 45.8356 33.1751 45.8447 33.1757 45.8539C33.1757 45.8545 33.1757 45.8555 33.1757 45.8562C33.1874 46.1573 33.2177 46.4546 33.2642 46.7472C33.5795 48.9892 34.5771 50.9107 36.126 52.2251C36.2015 52.2891 36.2783 52.3508 36.3557 52.4116C31.1642 49.2159 26.013 45.9741 21.0261 42.8352C15.5602 39.3948 9.90826 35.8372 4.19869 32.338C1.31609 30.5716 -0.180363 27.194 0.47464 23.9336C0.651001 23.0566 0.964996 22.2207 1.40818 21.4486L1.40785 21.4492Z" fill="#FFE500"/>
<path d="M48.5133 44.3909C47.2794 48.7187 43.4926 51.7883 39.8948 51.3801C38.2154 51.1893 36.7616 50.2744 35.8011 48.8039C34.5073 46.8233 34.2421 44.1266 35.0732 41.4055C35.6686 39.4558 36.7496 37.7636 38.1451 36.5423C38.153 36.5374 38.1604 36.5319 38.1669 36.525C38.1715 36.5204 38.1761 36.5162 38.1803 36.5119C38.7029 36.0592 39.2687 35.6719 39.8694 35.3622C40.8849 34.8386 41.945 34.5728 42.9713 34.5728C43.5899 34.5728 44.196 34.6691 44.773 34.8638C48.0756 35.9782 49.7185 40.163 48.513 44.3909H48.5133Z" fill="#2A2A2A"/>
<path d="M70.274 41.9729C70.5935 42.535 70.9927 43.0517 71.4678 43.509C72.6359 44.6339 74.123 45.262 75.5931 45.262C75.7034 45.262 75.8137 45.2584 75.9236 45.2512C77.453 45.1523 79.0578 44.4304 80.4423 43.2186C81.8828 41.9582 82.9735 40.294 83.596 38.4061C84.5246 35.5899 84.3486 32.664 83.1248 30.5791C82.2586 29.1034 80.9177 28.1565 79.2472 27.8403C79.2403 27.839 79.2338 27.8387 79.2273 27.8387C78.7138 27.7423 78.1708 27.7244 77.6173 27.793C77.1595 27.8498 76.701 27.9622 76.2546 28.1265C75.1274 28.5423 74.1112 29.2661 73.2314 30.2767C72.1801 31.3323 71.3438 32.7352 70.8326 34.3445C70.0162 36.9154 70.1874 39.5888 71.2901 41.4967C72.0245 42.7672 73.0957 43.5854 74.3875 43.8627C74.6976 43.9294 75.0129 43.9624 75.3298 43.9624C76.59 43.9624 77.8838 43.4424 79.0558 42.4491C80.4986 41.2265 81.5916 39.4333 82.1327 37.4004C83.2117 33.3483 81.7705 29.4349 78.8518 28.4916C77.8096 28.1549 76.6841 28.2212 75.5683 28.6798C75.8166 28.5498 76.0714 28.4355 76.332 28.3394C76.7622 28.1807 77.2037 28.0726 77.6443 28.018C79.0031 27.8495 80.2962 28.2176 81.192 29.028C83.2706 30.9084 83.8716 34.5329 82.6875 38.0478C81.3381 42.0526 77.8512 44.9488 74.572 44.7861C74.2053 44.7675 73.7589 44.7211 73.1025 44.4049C73.0947 44.4014 73.0866 44.3987 73.0785 44.3968C72.5595 44.1257 72.0675 43.7733 71.6233 43.3454C70.4458 42.2113 69.7462 40.7 69.6102 39.029C69.5932 38.7638 69.5851 38.4936 69.5877 38.2193C69.6186 34.7341 71.1619 31.2307 73.6147 29.076C75.0965 27.7744 76.8032 27.0819 78.4923 27.0819C78.7464 27.0819 79.0002 27.0976 79.2527 27.1293C80.934 27.3399 82.3201 28.2356 83.2615 29.7194C84.6622 31.9274 84.9121 35.2251 83.9139 38.3254C82.5934 42.4266 79.2345 45.5606 75.9272 45.7774C74.4135 45.8767 72.9597 45.343 71.8345 44.2753C71.1737 43.6482 70.6491 42.8688 70.2733 41.9732L70.274 41.9729Z" fill="#FFE500"/>
<path d="M83.4531 29.5976C83.0145 28.9061 82.4818 28.3384 81.8704 27.9017L81.8171 27.8413C81.7507 27.7662 81.6797 27.6953 81.6062 27.6273L82.1372 27.8174C82.1418 27.8191 82.1463 27.8187 82.1509 27.8197C82.8072 28.1225 83.5094 28.2884 84.2324 28.3002C84.2617 28.3005 84.291 28.3008 84.3203 28.3008C85.6085 28.3008 86.9286 27.8331 88.1484 26.9597C86.1841 29.0861 84.9473 32.1818 84.8851 35.2074C84.8851 35.2146 84.8851 35.2218 84.8851 35.2293C84.8851 35.2299 84.8851 35.2303 84.8851 35.2309C84.8786 35.4256 84.8816 35.6183 84.89 35.8097C84.891 35.8411 84.8923 35.8727 84.8936 35.9041C84.8946 35.9188 84.8949 35.9332 84.8959 35.9479C84.9932 38.0115 85.6827 39.7861 86.8729 40.9992C87.048 41.1775 87.2312 41.3402 87.4212 41.4881L83.4824 40.0163C83.7323 39.4967 83.9503 38.9548 84.1306 38.395C85.1487 35.2322 84.8894 31.8614 83.4538 29.5979L83.4531 29.5976Z" fill="#FFE500"/>
<path d="M93.2166 26.1236C94.2071 26.3744 95.041 27.0437 95.6284 28.0589C96.5762 29.6982 96.76 32.0519 96.1203 34.3546C95.5844 36.283 94.5546 37.9589 93.2205 39.0727C91.8962 40.1787 90.4404 40.5883 89.1216 40.2264C88.1243 39.9527 87.2936 39.2573 86.7199 38.2154C85.7854 36.5179 85.6471 34.1142 86.3499 31.786C86.7671 30.4044 87.4429 29.1596 88.2987 28.1738C88.3003 28.1719 88.3019 28.1706 88.3036 28.1686C88.3062 28.1653 88.3088 28.1621 88.3114 28.1588C88.6003 27.8276 88.9098 27.5255 89.2368 27.258C90.2357 26.4404 91.3092 26.0142 92.3361 26.0142C92.6345 26.0142 92.9289 26.0501 93.2166 26.1229V26.1236Z" fill="#2A2A2A"/>
<path d="M66.1641 32.3027C66.6883 32.7623 67.1364 33.3153 67.4956 33.9574C68.6481 36.0191 68.8001 38.8467 67.9017 41.5208C66.5744 45.472 63.0088 48.4966 59.4237 48.7132C59.0453 48.7357 58.6633 48.7207 58.2832 48.6714C62.0385 48.6253 65.8839 45.5237 67.3602 41.2759C67.9918 39.4582 68.161 37.5977 67.849 35.896C67.5886 34.4761 67.0101 33.2483 66.1644 32.3027H66.1641Z" fill="#2A2A2A"/>
<path d="M52.7357 44.8723C53.0741 45.5699 53.527 46.2147 54.0873 46.7863C55.4308 48.1572 57.2709 48.9502 59.0729 48.9502C59.1949 48.9502 59.3163 48.9466 59.438 48.9391C63.1113 48.7173 66.7608 45.6281 68.1164 41.5932C69.0346 38.8594 68.8765 35.9632 67.6934 33.8466C66.7784 32.2099 65.3148 31.1222 63.4604 30.7002C63.4523 30.6982 63.4438 30.6976 63.4357 30.6976C62.8887 30.5741 62.3089 30.5255 61.7163 30.5604C61.2217 30.5898 60.7239 30.6741 60.2368 30.8109C59.0739 31.1376 58.0014 31.7444 57.0422 32.6149C55.7289 33.6421 54.6574 35.1031 53.9754 36.8222C52.9065 39.5165 52.9485 42.4016 54.088 44.5404C54.8852 46.0364 56.175 47.0421 57.7199 47.3716C58.0873 47.45 58.4602 47.4889 58.835 47.4889C60.2567 47.4889 61.7066 46.9307 63.014 45.8632C64.6256 44.5469 65.8247 42.6303 66.3902 40.4664C66.9024 38.5063 66.8285 36.5005 66.1823 34.818C65.5348 33.1326 64.3686 31.9097 62.8981 31.375C61.7941 30.9736 60.584 30.972 59.3823 31.3538C59.6804 31.2251 59.9859 31.1167 60.2976 31.0291C60.7695 30.8965 61.2514 30.8152 61.73 30.7864C63.1916 30.6995 64.5765 31.1353 65.5273 31.9822C67.765 33.9756 68.4011 37.5943 67.148 41.201C65.6467 45.5213 61.6535 48.6314 57.8618 48.4371C57.4274 48.4142 56.8993 48.3597 56.1304 47.9951C56.1203 47.9902 56.1096 47.9876 56.0992 47.986C55.4237 47.6414 54.7937 47.1838 54.2484 46.6272C52.9976 45.3511 52.3 43.6984 52.2388 41.9058C52.2342 41.6171 52.2401 41.3238 52.2583 41.0262C52.4757 37.4611 54.208 34.0566 56.8928 31.9188C58.5484 30.6009 60.4141 29.9075 62.2539 29.9075C62.6613 29.9075 63.067 29.9414 63.4695 30.01C65.3454 30.3305 66.8659 31.3793 67.8668 33.0424C69.2364 35.3184 69.4654 38.489 68.4789 41.5233C68.2986 42.078 68.0809 42.6162 67.8307 43.1339C67.8304 43.1349 67.8297 43.1356 67.8294 43.1366C67.8294 43.1366 67.8294 43.1369 67.8294 43.1372C66.0853 46.7432 62.7569 49.3556 59.4266 49.5675C58.2942 49.6397 57.2052 49.4277 56.2303 48.959L56.0631 48.8754C55.4858 48.5762 54.9506 48.1856 54.4739 47.708C53.6975 46.9303 53.1131 45.9681 52.7366 44.8723H52.7357Z" fill="#FFE500"/>
<path d="M82.9021 38.1206C84.0348 34.7593 83.5627 31.2918 81.7486 29.2677C82.2071 29.6616 82.6047 30.1385 82.9311 30.6947C84.1223 32.7241 84.2912 35.5804 83.3824 38.3355C82.1707 42.0101 79.0278 44.8237 75.9096 45.0255C75.647 45.0425 75.3834 45.0366 75.1202 45.0118C76.5685 44.9383 78.0793 44.3119 79.4319 43.2137C80.9892 41.9494 82.2218 40.1405 82.9021 38.1206Z" fill="#2A2A2A"/>
<path d="M78.7834 28.7079C81.5876 29.6143 82.9633 33.4071 81.9156 37.3426C80.9235 41.0685 78.0881 43.735 75.3177 43.7354C75.0219 43.7354 74.7271 43.705 74.4353 43.6423C73.2073 43.3787 72.1872 42.5977 71.486 41.384C70.4148 39.5307 70.2511 36.9252 71.0483 34.4144C71.5292 32.8992 72.3037 31.5727 73.2749 30.5572C73.2896 30.5504 73.3033 30.5409 73.3146 30.5278C73.3439 30.4932 73.3735 30.4599 73.4031 30.4259C73.9433 29.8857 74.5414 29.4405 75.1811 29.1096C75.9558 28.7095 76.741 28.5073 77.502 28.5073C77.9394 28.5073 78.3686 28.574 78.7837 28.7082L78.7834 28.7079Z" fill="#2A2A2A"/>
<path d="M1.2126 21.3358C2.11783 19.7595 3.48347 18.5337 5.16215 17.7909C7.00188 16.977 9.11951 16.9198 11.0513 17.6165C9.85195 16.9584 8.85822 15.969 8.21558 14.7791C6.8213 12.1981 6.80763 9.09873 8.17979 6.6905C9.53665 4.30873 12.0734 2.78794 14.9654 2.62267C15.5954 2.58674 16.2432 2.6524 16.8901 2.818L23.8843 4.6089C24.2705 3.93245 24.9711 2.99699 26.1441 2.29833C26.5264 2.07067 26.9344 1.88384 27.3571 1.74274C28.3928 1.39716 29.5291 1.34294 30.6432 1.58595L38.145 3.22073C38.4649 2.60177 39.0453 1.7545 40.0384 1.07838C40.0846 1.04669 40.1312 1.01632 40.1774 0.986919C41.3302 0.250047 42.7304 -0.00733419 44.1201 0.262134L87.3383 8.63753C88.7225 8.79757 89.9456 9.46912 90.9159 10.6126C92.7147 12.7325 93.3628 16.2248 92.607 19.7272C92.3219 21.0478 91.8459 22.3043 91.2159 23.4321L94.4314 24.4284C94.4314 24.4284 94.434 24.4297 94.4356 24.43C95.7727 24.6648 96.8933 25.3968 97.7042 26.5792C99.1964 28.7552 99.4352 32.1338 98.3276 35.3965C97.6446 37.4086 96.4589 39.2321 94.9891 40.5314C93.5509 41.8027 91.9266 42.5072 90.4161 42.5151C90.407 42.5151 90.3982 42.5151 90.3895 42.5151C89.7693 42.5151 89.1741 42.3994 88.6161 42.1767L83.3816 40.2205C81.7413 43.4809 78.8255 45.8143 75.9436 46.0031C75.819 46.0113 75.695 46.0152 75.5713 46.0152C74.8828 46.0152 74.2112 45.8878 73.5793 45.6448C73.5705 45.6435 73.5617 45.6415 73.553 45.6376L67.9875 43.3251C66.1963 46.9552 62.821 49.5784 59.4403 49.7936C59.2906 49.8031 59.1416 49.808 58.9935 49.808C57.9861 49.808 57.0194 49.5882 56.1415 49.1678C56.1409 49.1675 56.1402 49.1675 56.1392 49.1672L50.9399 46.5685C50.1573 48.3973 48.968 50.0363 47.4631 51.3474C45.775 52.8185 43.7983 53.7465 41.8974 53.9601C41.5983 53.9937 41.3009 54.0104 41.0058 54.0104C40.3209 54.0104 39.6496 53.9199 39.0047 53.7445L38.828 53.7151C38.1121 53.5953 37.4363 53.3421 36.8191 52.9629C31.4297 49.6509 26.08 46.2837 20.9066 43.0272C15.4415 39.5872 9.79012 36.0302 4.08154 32.5317C1.11824 30.7156 -0.419861 27.2426 0.253685 23.8891C0.434601 22.9879 0.757385 22.1289 1.21293 21.3358H1.2126ZM16.8341 3.03782C16.2097 2.87777 15.5853 2.8144 14.9781 2.84903C12.1625 3.01005 9.69446 4.48804 8.37566 6.80318C7.04223 9.1438 7.05688 12.1589 8.41407 14.6713C9.13219 16.0007 10.3033 17.073 11.7119 17.6907L45.844 32.6564C45.7958 32.6153 45.7473 32.5754 45.7002 32.5326C43.8643 30.8815 42.6916 28.1908 42.5631 25.3344C42.5439 24.9095 42.5485 24.4829 42.5764 24.0658C42.8065 20.6248 44.5356 17.0991 47.0889 14.864C48.9752 13.2133 51.1621 12.3706 53.4421 12.4104L16.8341 3.03716V3.03782ZM59.4627 27.9938C59.4637 27.9912 59.464 27.9886 59.465 27.986C59.4692 27.9755 59.4754 27.9664 59.4819 27.9579C59.9544 27.0744 60.337 26.1242 60.6091 25.127C61.5455 21.6935 61.0708 18.1803 59.3391 15.7296C58.2868 14.2402 56.8626 13.2622 55.1728 12.854C55.1715 12.854 55.1702 12.854 55.1689 12.8533L55.1195 12.8406C54.7244 12.7481 54.3151 12.6867 53.8928 12.6573C53.6904 12.6433 53.489 12.6361 53.2879 12.6361C51.1192 12.6361 49.0383 13.4586 47.237 15.0352C44.8564 17.1187 43.2057 20.3442 42.8488 23.5576C42.8488 23.5602 42.8495 23.5628 42.8495 23.5657C42.8169 25.4282 43.1267 27.1988 43.7452 28.6866C44.3716 30.1927 45.5671 31.4447 47.0248 32.1214C47.0414 32.1293 48.7185 32.8955 50.6207 32.8237C54.2588 32.6865 57.9783 28.3796 59.1696 24.4434C59.8161 22.3069 59.7845 20.1838 59.0758 18.1329C58.4059 16.1944 57.1173 14.7409 55.4475 14.04C55.1614 13.9416 54.3974 13.7133 53.3972 13.6836C52.7145 13.6634 52.0286 13.7417 51.3632 13.9129C51.6508 13.8828 51.9408 13.8717 52.231 13.8815C53.9338 13.9384 55.4351 14.6877 56.5726 16.0477C58.0912 17.8635 58.7378 20.4941 58.3467 23.2649C58.032 25.4951 57.0542 27.6012 55.5942 29.1955C54.1332 30.7907 52.3257 31.7265 50.5045 31.8307C50.3919 31.8373 50.2797 31.8405 50.1681 31.8405C48.6212 31.8405 47.1592 31.2261 46.0203 30.0901C44.4458 28.5194 43.6196 26.1007 43.7534 23.4537C43.8809 20.9311 44.8678 18.4468 46.4606 16.6376C47.415 15.5539 48.5151 14.7693 49.6842 14.3195C49.6927 14.3107 49.7021 14.3029 49.7138 14.297C50.8601 13.7101 52.137 13.4197 53.404 13.4569C54.4235 13.487 55.2067 13.7182 55.5103 13.8218L55.5418 13.826L55.5516 13.8361C56.1018 14.0288 57.1382 14.4848 58.0844 15.4186C58.1979 15.5307 58.2965 15.6375 58.3597 15.7077C58.9109 16.3214 59.3703 17.0717 59.725 17.9386C60.2795 19.2931 60.8053 21.5302 60.1617 24.4953C59.8968 25.7156 59.4042 27.987 57.3575 30.1169C56.4282 31.0841 54.2517 33.3486 51.0137 33.4234C50.96 33.4247 50.9067 33.4253 50.853 33.4253C49.5609 33.4253 48.2554 33.0677 47.0661 32.3863C46.988 32.3537 46.9412 32.3324 46.9308 32.3275C45.422 31.6272 44.1852 30.3322 43.5376 28.7745C43.3558 28.3371 43.2009 27.8749 43.0723 27.3945C43.5328 29.3836 44.5109 31.1595 45.8511 32.3648C46.3164 32.7835 46.8211 33.1294 47.3577 33.4011C47.4634 33.4482 47.5679 33.4978 47.6707 33.5498C48.6817 33.9976 49.7971 34.1909 50.9753 34.1142C54.3444 33.895 57.5957 31.4613 59.4631 27.9945L59.4627 27.9938ZM56.9651 31.5769C58.9883 30.0457 61.3018 29.4107 63.5066 29.7877C63.5382 29.7932 63.5698 29.7991 63.6013 29.805L59.6166 28.1702C58.9161 29.447 58.0193 30.6072 56.9722 31.5707C56.9699 31.573 56.9677 31.575 56.9651 31.5769ZM48.8955 32.9171C49.5908 33.1167 50.3024 33.212 51.0082 33.1964C54.1534 33.1238 56.2847 30.906 57.1948 29.9591C59.1969 27.8756 59.6811 25.645 59.9411 24.4466C60.5723 21.5387 60.0582 19.349 59.5161 18.0245C59.1712 17.1821 58.7257 16.4537 58.1921 15.8593C58.1312 15.7917 58.0359 15.6881 57.9263 15.5803C57.8742 15.5291 57.8218 15.4797 57.7694 15.4314C58.4205 16.1542 58.9382 17.0417 59.2896 18.0585C60.0143 20.1557 60.0468 22.3259 59.3863 24.509C58.1722 28.5197 54.3642 32.9089 50.6298 33.0497C50.5396 33.053 50.4498 33.0546 50.361 33.0546C49.8381 33.0546 49.3412 32.9984 48.8955 32.9171ZM46.6298 16.7875C45.0702 18.5589 44.1038 20.9929 43.9789 23.4651C43.8481 26.0478 44.6501 28.4041 46.1795 29.9294C47.3548 31.1017 48.8864 31.6965 50.4918 31.6047C54.1381 31.396 57.4902 27.7185 58.1234 23.2329C58.5058 20.5255 57.8774 17.9595 56.4002 16.1931C55.3049 14.8833 53.8609 14.1624 52.2238 14.1076C52.1565 14.1053 52.0891 14.1043 52.0218 14.1043C50.0662 14.1043 48.1588 15.0515 46.6301 16.7879L46.6298 16.7875ZM30.595 1.80774C29.5206 1.57354 28.4254 1.62548 27.4277 1.95831C27.0207 2.09419 26.6273 2.27416 26.2589 2.49365C25.1591 3.14854 24.4898 4.01998 24.1111 4.66769L55.166 12.6191C56.9351 13.031 58.4254 14.0455 59.5229 15.5989C61.2934 18.1045 61.7808 21.6889 60.8264 25.1871C60.5635 26.151 60.1896 27.0865 59.7237 27.97L65.2611 30.2417C64.8137 29.9598 64.3927 29.6172 64.0071 29.2171C62.726 27.887 61.8878 25.9704 61.6474 23.8195C61.608 23.4681 61.5839 23.1065 61.5761 22.7446C61.498 19.2193 62.8298 15.6741 65.1388 13.2606C66.7543 11.572 68.6604 10.6345 70.6629 10.5401L30.5947 1.80806L30.595 1.80774ZM77.2702 22.3239C78.1019 18.842 77.5097 15.2936 75.7249 13.0633C74.8506 11.9711 73.7537 11.2532 72.499 10.9393C72.4968 10.9389 72.4945 10.9393 72.4919 10.9386L72.1356 10.8609C71.7676 10.7933 71.3872 10.7586 70.9957 10.7586C70.9547 10.7586 70.9137 10.759 70.8727 10.7596C68.8566 10.7962 66.9304 11.7153 65.3018 13.4171C63.0335 15.7881 61.7251 19.2729 61.8019 22.739C61.8097 23.0915 61.8332 23.4439 61.8712 23.7862C61.8712 23.7872 61.8719 23.7885 61.8722 23.7895C62.0834 25.191 62.6584 26.473 63.5346 27.497C63.8193 27.8299 64.3494 28.4488 65.2699 28.9528C65.2839 28.9603 66.6674 29.7063 68.2706 29.7063C68.2843 29.7063 68.298 29.7063 68.3116 29.7063C69.7947 29.6946 71.4233 28.7852 72.8973 27.1456C74.273 25.615 75.3602 23.6209 75.8798 21.6742C76.4424 19.5665 76.364 17.5065 75.6465 15.5513C74.9837 13.7447 73.7814 12.4548 72.2608 11.9185C72.0064 11.8486 71.3296 11.6948 70.4572 11.7425C70.1501 11.7591 69.8435 11.8009 69.5406 11.8653C69.5673 11.8633 69.5943 11.8607 69.621 11.8587C71.11 11.764 72.4496 12.3137 73.4967 13.4468C75.0159 15.0907 75.6901 17.755 75.3 20.5735C74.6804 25.0499 71.5437 28.6507 68.1587 28.7712C68.1008 28.7732 68.0432 28.7741 67.9856 28.7741C66.7091 28.7741 65.5332 28.2675 64.5755 27.303C63.1699 25.8867 62.4192 23.6487 62.5162 21.1627C62.6066 18.8482 63.3898 16.5981 64.7216 14.8271C65.5 13.792 66.4065 13.0042 67.3794 12.4992C68.322 11.9146 69.3795 11.5746 70.4449 11.5164C71.3384 11.4674 72.0363 11.6232 72.309 11.6974L72.3448 11.6997L72.3549 11.7101C72.8566 11.8515 73.7973 12.2053 74.6791 13.0199C74.7266 13.0637 74.8236 13.1551 74.9394 13.2766C75.4653 13.828 75.9107 14.5198 76.2634 15.3331C76.8228 16.6233 77.3759 18.7757 76.8342 21.7049C76.6113 22.9108 76.1961 25.1558 74.3163 27.239C73.4872 28.1578 71.5531 30.3011 68.7102 30.3011C68.6904 30.3011 68.6702 30.3011 68.65 30.3011C67.4913 30.2887 66.3242 29.9115 65.2741 29.2105C65.2097 29.1785 65.1707 29.1576 65.1619 29.1527C64.2049 28.6288 63.6576 27.9893 63.3635 27.6456C63.0215 27.2458 62.7244 26.8085 62.4748 26.3408C63.5675 29.2236 65.8781 31.0338 68.6354 30.9505C72.4105 30.8381 76.1229 27.1299 77.2705 22.3249L77.2702 22.3239ZM74.5431 28.0899C76.0363 27.1224 77.6811 26.7043 79.2817 26.9048C79.4896 26.931 79.6927 26.9676 79.8915 27.0136L78.7019 26.5877L76.2071 25.7195C75.7366 26.5838 75.177 27.3824 74.5431 28.0895V28.0899ZM66.9697 29.7909C67.5229 29.9719 68.0887 30.0679 68.6526 30.0741C71.4272 30.1061 73.3346 27.9896 74.1494 27.0868C75.9859 25.0512 76.3936 22.8475 76.6126 21.6638C77.1439 18.7911 76.6035 16.6847 76.0568 15.4235C75.7148 14.6351 75.2843 13.9655 74.7767 13.4334C74.6655 13.3165 74.5724 13.2289 74.5268 13.1868C74.5076 13.1692 74.4884 13.1528 74.4692 13.1355C75.0497 13.7675 75.5222 14.5564 75.8587 15.4735C76.5924 17.4735 76.6731 19.5796 76.0985 21.7333C75.0468 25.6722 71.668 29.9069 68.3139 29.9337C68.2993 29.9337 68.2849 29.9337 68.2703 29.9337C67.8083 29.9337 67.3677 29.8755 66.9704 29.7913L66.9697 29.7909ZM67.4894 12.6972C67.4672 12.7109 67.4451 12.724 67.423 12.738C67.41 12.7465 67.3957 12.7517 67.381 12.754C66.4761 13.2449 65.6317 13.9919 64.9012 14.9633C63.616 16.6729 62.8285 18.9358 62.7413 21.1715C62.647 23.5945 63.3736 25.7711 64.735 27.143C65.69 28.1052 66.8695 28.5896 68.1499 28.5445C71.4285 28.4279 74.4706 24.9131 75.0754 20.5421C75.4561 17.7903 74.8037 15.1956 73.3301 13.6006C72.404 12.5985 71.2388 12.0746 69.9438 12.0746C69.8413 12.0746 69.7378 12.0779 69.634 12.0844C68.9006 12.1308 68.1779 12.3402 67.4884 12.6965L67.4894 12.6972ZM44.0771 0.484892C42.7444 0.22653 41.4025 0.472807 40.2984 1.17865C40.2538 1.20707 40.2093 1.23646 40.165 1.26684C39.2396 1.89658 38.6864 2.68212 38.3734 3.27135L72.158 10.6342C73.6265 10.8988 74.9033 11.6752 75.901 12.9216C77.7283 15.205 78.3371 18.8283 77.4898 22.3768C77.2269 23.4772 76.8273 24.5361 76.3148 25.5173L80.5527 26.9921C80.6584 27.029 80.7613 27.0724 80.8618 27.1208L81.1498 27.224C80.76 26.9339 80.3949 26.5897 80.0633 26.1918C78.9479 24.8546 78.2493 22.9791 78.0957 20.9109C78.0713 20.5804 78.0602 20.241 78.0628 19.9023C78.0843 17.1851 78.9703 14.3989 80.4931 12.2595C82.0225 10.1106 84.0057 8.83024 86.1018 8.62969L44.0768 0.485546L44.0771 0.484892ZM92.3864 19.6795C93.1276 16.2447 92.4983 12.8269 90.7441 10.76C89.6674 9.49133 88.2679 8.8273 86.6807 8.8273C86.5772 8.8273 86.4728 8.83024 86.368 8.83579C84.2488 8.95011 82.2278 10.2125 80.6773 12.3908C79.1805 14.4936 78.3101 17.2321 78.289 19.9039C78.2864 20.2341 78.2971 20.565 78.3209 20.8871C78.3209 20.888 78.3212 20.8887 78.3215 20.8897C78.4676 22.222 78.9375 23.4589 79.6797 24.4672C79.9247 24.8001 80.3809 25.4193 81.1937 25.9455C81.2064 25.9537 82.4627 26.7566 83.9474 26.8085C86.9693 26.916 90.107 22.7906 91.0363 19.024C91.5426 16.9721 91.4411 14.9891 90.735 13.1296C90.1008 11.4593 88.9893 10.2919 87.6048 9.84213C87.3764 9.78595 86.7715 9.66608 85.9971 9.73369C85.7784 9.75264 85.5601 9.7866 85.3437 9.83331C86.6111 9.74022 87.7681 10.1942 88.6948 11.1519C90.1519 12.6577 90.8196 15.1952 90.4806 17.9402C90.2167 20.0773 89.3756 22.0757 88.1118 23.567C86.8545 25.0509 85.3264 25.8685 83.8092 25.8685C82.6488 25.8685 81.5825 25.3844 80.7248 24.4685C79.421 23.0761 78.7598 20.8776 78.9105 18.4373C79.1239 14.9846 80.894 11.8826 83.1867 10.5336C83.1916 10.5287 83.1965 10.5245 83.2023 10.5205C84.0496 9.94273 85.0089 9.59259 85.9772 9.50832C86.7731 9.43875 87.3998 9.55993 87.6471 9.6197L87.6816 9.62035L87.693 9.63146C88.1498 9.74774 89.0072 10.0473 89.8217 10.776C89.8659 10.8155 89.9567 10.8984 90.0647 11.0082C90.5596 11.5115 90.9833 12.1514 91.3236 12.9101C91.8745 14.137 92.4322 16.1996 91.9617 19.0573C91.7645 20.254 91.3975 22.482 89.6069 24.5319C88.84 25.4102 87.0793 27.4261 84.524 27.4258C84.4329 27.4258 84.3402 27.4232 84.2471 27.418C83.1776 27.3572 82.1142 26.9352 81.1706 26.197C81.1133 26.1634 81.0788 26.1412 81.071 26.1363C80.2234 25.5876 79.7513 24.9467 79.4978 24.6024C79.2469 24.2618 79.0266 23.8953 78.8382 23.5089C79.4857 25.4256 80.6643 26.8722 82.1546 27.5839L82.2135 27.6048C82.2301 27.6107 82.244 27.6205 82.2554 27.6322C82.8694 27.9092 83.5345 28.0631 84.2361 28.0748C85.9297 28.1055 87.6874 27.285 89.1927 25.7721C90.7402 24.2164 91.8745 22.0528 92.3864 19.6802V19.6795ZM82.7399 26.8487C83.2365 27.0463 83.7477 27.1622 84.2598 27.1913C86.8548 27.3389 88.6643 25.2668 89.4371 24.382C91.185 22.3807 91.5452 20.1943 91.7388 19.0197C92.2002 16.2179 91.6559 14.2013 91.1177 13.0029C90.7881 12.2686 90.3797 11.651 89.9037 11.1669C89.8363 11.0983 89.7777 11.0428 89.7322 11.0007C90.2294 11.5582 90.641 12.2481 90.9452 13.0493C91.6679 14.9529 91.772 16.9812 91.2547 19.0788C90.7718 21.0363 89.7367 23.032 88.415 24.5541C87.0207 26.1598 85.4787 27.0375 84.0581 27.0375C84.0184 27.0375 83.9784 27.0368 83.939 27.0355C83.5114 27.0205 83.105 26.9476 82.7399 26.8493V26.8487ZM85.2669 10.0652C82.1533 10.3608 79.4028 14.1226 79.1353 18.4511C78.9882 20.8296 79.6276 22.966 80.8888 24.3134C81.7026 25.1825 82.7123 25.6418 83.8085 25.6418C86.8372 25.6418 89.7296 22.1743 90.2557 17.9125C90.5863 15.2351 89.9421 12.7668 88.5322 11.3097C87.7278 10.4784 86.7422 10.0466 85.6616 10.0466C85.5314 10.0466 85.3997 10.0528 85.2669 10.0655V10.0652ZM91.1008 23.6337C90.6677 24.3764 90.1672 25.0597 89.6082 25.6633C90.8034 24.8112 92.0932 24.3614 93.4025 24.3467L91.1008 23.6337ZM90.4145 42.2887C91.8706 42.2812 93.4422 41.5966 94.8398 40.3616C96.2806 39.0884 97.4432 37.2991 98.1138 35.3237C99.199 32.1276 98.9706 28.8261 97.518 26.7079C96.6021 25.372 95.2745 24.6351 93.6791 24.5763C93.6095 24.5737 93.5399 24.5724 93.4702 24.5724C91.828 24.5724 90.2098 25.2851 88.7781 26.6422C86.5818 28.7242 85.1764 32.0081 85.1107 35.2126C85.1065 35.4148 85.1084 35.6144 85.1153 35.8117C85.1162 35.8358 85.1166 35.86 85.1179 35.8842C85.1185 35.9008 85.1195 35.9172 85.1201 35.9335C85.2184 37.501 85.8301 38.9274 86.8789 40.0046C87.2251 40.3603 87.6077 40.6605 88.0119 40.9015C88.5448 41.1978 88.9181 41.2595 89.2262 41.2931C92.2237 41.6168 95.514 38.9323 96.8783 35.0474C98.1181 31.5165 97.5668 27.9827 95.5062 26.2542C95.0301 25.8547 94.4396 25.599 93.7888 25.4984C93.7754 25.4964 93.7624 25.4948 93.7491 25.4932C93.2499 25.421 92.7166 25.4389 92.1729 25.5536C91.7701 25.6385 91.3679 25.7734 90.9774 25.954C90.8173 26.0282 90.6602 26.1102 90.5056 26.1984C91.4336 25.7848 92.3815 25.6793 93.2701 25.9044C94.3211 26.1706 95.2036 26.8764 95.8218 27.9458C96.7996 29.6368 96.9919 32.0558 96.3359 34.4163C95.3269 38.0481 92.6629 40.5824 90.0777 40.5824C89.7358 40.5824 89.3954 40.538 89.0603 40.4462C88.0027 40.1562 87.1245 39.4229 86.5206 38.326C85.5571 36.5763 85.412 34.107 86.1324 31.7213C86.5593 30.3077 87.2521 29.0332 88.1306 28.0226C88.921 26.9934 89.847 26.2281 90.8831 25.7486C91.2888 25.5608 91.707 25.421 92.1264 25.3325C92.6428 25.2237 93.1513 25.1985 93.6332 25.2511C93.6375 25.2511 93.6414 25.2508 93.6456 25.2511C93.7003 25.257 93.7536 25.2658 93.8076 25.273C93.8138 25.274 93.8197 25.2746 93.8259 25.2756C95.3275 25.4889 96.5471 26.2764 97.3586 27.565C98.6087 29.5496 98.7721 32.5549 97.7849 35.408C96.5123 39.0858 93.409 41.7782 90.4064 41.8099C90.3914 41.8099 90.3764 41.8099 90.3615 41.8099C89.5249 41.8099 88.6769 41.56 87.9064 41.1027C87.8882 41.0926 87.8706 41.0831 87.8521 41.0727C87.8446 41.0684 87.8378 41.0632 87.8319 41.0576C87.4346 40.8133 87.0581 40.5141 86.7168 40.1633C86.3374 39.7737 86.0137 39.3393 85.7478 38.8709C86.0651 39.6286 86.4959 40.2943 87.0318 40.8408C87.9679 41.7948 89.138 42.2923 90.4132 42.289L90.4145 42.2887ZM89.807 41.5437C90.0065 41.5708 90.2063 41.5851 90.4054 41.5829C93.3163 41.5518 96.3307 38.9235 97.573 35.3332C98.5384 32.5438 98.3836 29.6132 97.1692 27.6855C96.839 27.1613 96.4371 26.7252 95.9747 26.3796C97.8389 28.2535 98.2957 31.6942 97.0918 35.1231C95.784 38.847 92.7326 41.4914 89.807 41.544V41.5437ZM89.2363 27.2586C88.9093 27.5261 88.6002 27.8279 88.3109 28.1594C88.3083 28.1627 88.3057 28.166 88.3031 28.1692C88.3015 28.1712 88.2998 28.1725 88.2982 28.1745C87.4421 29.1602 86.7663 30.405 86.3495 31.7866C85.6466 34.1152 85.7846 36.5188 86.7194 38.216C87.2931 39.2579 88.1235 39.9533 89.1211 40.227C90.4399 40.5889 91.8957 40.179 93.22 39.0734C94.5541 37.9593 95.5839 36.2836 96.1198 34.3552C96.7596 32.0522 96.5757 29.6988 95.6279 28.0595C95.0409 27.044 94.2069 26.3747 93.2161 26.1242C92.9285 26.0514 92.634 26.0154 92.3356 26.0154C91.3087 26.0154 90.2352 26.4414 89.2363 27.2592V27.2586ZM87.4203 41.4885C87.2303 41.3405 87.0471 41.1778 86.872 40.9995C85.6821 39.7864 84.9923 38.0118 84.895 35.9482C84.894 35.9338 84.8937 35.9191 84.8927 35.9044C84.8914 35.8731 84.8904 35.8417 84.8891 35.81C84.8807 35.6186 84.8777 35.4262 84.8842 35.2312C84.8842 35.2306 84.8842 35.2303 84.8842 35.2296C84.8842 35.2224 84.8842 35.2152 84.8842 35.2077C84.9464 32.1822 86.1832 29.0864 88.1475 26.96C86.9277 27.8338 85.6072 28.3012 84.3194 28.3012C84.2901 28.3012 84.2608 28.3012 84.2315 28.3005C83.5088 28.2884 82.8066 28.1228 82.15 27.8201C82.1455 27.8191 82.1409 27.8194 82.1363 27.8178L81.6053 27.6277C81.6785 27.6956 81.7498 27.7662 81.8162 27.8416L81.8695 27.902C82.4806 28.3387 83.0133 28.9064 83.4522 29.5979C84.8881 31.8614 85.1475 35.2322 84.129 38.395C83.9487 38.9548 83.7307 39.4967 83.4808 40.0163L87.4197 41.4881L87.4203 41.4885ZM75.9283 45.7774C79.2355 45.5605 82.5945 42.4265 83.9149 38.3254C84.9132 35.225 84.663 31.9277 83.2625 29.7194C82.3212 28.2355 80.935 27.3399 79.2537 27.1292C79.0012 27.0976 78.7474 27.0819 78.4933 27.0819C76.8042 27.0819 75.0976 27.7743 73.6158 29.0759C71.1627 31.2307 69.6197 34.7341 69.5888 38.2192C69.5865 38.4936 69.5943 38.7637 69.6112 39.029C69.7472 40.7 70.4468 42.2113 71.6244 43.3453C72.0685 43.7732 72.5605 44.1257 73.0795 44.3968C73.0877 44.3987 73.0958 44.401 73.1036 44.4049C73.7599 44.7211 74.2063 44.7675 74.5731 44.7861C77.8523 44.9491 81.3391 42.0525 82.6885 38.0478C83.8726 34.5332 83.2716 30.9083 81.193 29.0279C80.2973 28.2176 79.0042 27.8495 77.6454 28.018C77.2045 28.0725 76.7629 28.181 76.3331 28.3394C76.0721 28.4358 75.8177 28.5498 75.5694 28.6797C76.6851 28.2212 77.8106 28.1549 78.8529 28.4916C81.7716 29.4349 83.2127 33.3482 82.1337 37.4004C81.5923 39.4337 80.4996 41.2265 79.0569 42.4491C77.8848 43.4423 76.5908 43.9623 75.3309 43.9623C75.0139 43.9623 74.6986 43.9294 74.3886 43.8627C73.0964 43.5851 72.0256 42.7672 71.2912 41.4966C70.1885 39.5891 70.0176 36.9153 70.8337 34.3445C71.3446 32.7352 72.1811 31.3323 73.2325 30.2766C74.1123 29.2657 75.1285 28.5419 76.2556 28.1264C76.7021 27.9618 77.1602 27.8498 77.6183 27.7929C78.1718 27.7244 78.7152 27.7423 79.2284 27.8387C79.2349 27.8387 79.2417 27.839 79.2482 27.8403C80.9187 28.1562 82.2597 29.1034 83.1258 30.5791C84.3496 32.664 84.5257 35.5899 83.597 38.4061C82.9745 40.294 81.8838 41.9582 80.4434 43.2186C79.0585 44.4301 77.4537 45.1519 75.9247 45.2512C75.8147 45.2584 75.7044 45.262 75.5941 45.262C74.1237 45.262 72.6367 44.6339 71.4689 43.509C70.9941 43.0517 70.5945 42.535 70.275 41.9729C70.6508 42.8685 71.1754 43.6478 71.8362 44.2749C72.9617 45.3427 74.4156 45.8764 75.9289 45.7771L75.9283 45.7774ZM75.12 45.0121C75.3833 45.037 75.6472 45.0428 75.9094 45.0258C79.0276 44.824 82.1705 42.0104 83.3822 38.3358C84.2907 35.5807 84.1222 32.7244 82.9309 30.695C82.6046 30.1388 82.207 29.6619 81.7485 29.268C83.5628 31.2918 84.0347 34.7596 82.902 38.1209C82.2213 40.1408 80.989 41.9497 79.4317 43.214C78.0794 44.3122 76.5683 44.9386 75.12 45.0121ZM75.1809 29.1096C74.5412 29.4401 73.9431 29.8857 73.403 30.4259C73.3733 30.4599 73.3437 30.4932 73.3145 30.5278C73.3034 30.5409 73.2897 30.5507 73.2748 30.5572C72.3035 31.5727 71.5294 32.8995 71.0481 34.4144C70.2509 36.9251 70.4146 39.5307 71.4858 41.3839C72.1873 42.5977 73.2071 43.3787 74.4351 43.6422C74.727 43.705 75.0218 43.7353 75.3175 43.7353C78.0879 43.7353 80.9233 41.0687 81.9154 37.3426C82.9635 33.407 81.5874 29.6142 78.7832 28.7078C78.3684 28.5736 77.9392 28.507 77.5015 28.507C76.7405 28.507 75.9553 28.7091 75.1805 29.1093L75.1809 29.1096ZM72.0679 44.7763C71.9351 44.6705 71.8056 44.5588 71.6807 44.4399C70.3297 43.1582 69.5299 41.2657 69.3864 39.0505C69.3646 38.7853 69.3564 38.5161 69.3626 38.2441C69.3626 38.2431 69.3626 38.2424 69.363 38.2415C69.363 38.2336 69.363 38.2258 69.363 38.2179C69.3903 35.1437 70.5753 32.0551 72.5173 29.8566C71.2762 30.6777 69.9438 31.1373 68.6419 31.1758C68.5823 31.1775 68.5235 31.1785 68.4642 31.1785C67.5889 31.1785 66.7364 30.9835 65.9464 30.614C66.1846 30.78 66.4023 30.9743 66.5923 31.1941C67.1578 31.6681 67.6504 32.2475 68.0588 32.9262C69.4619 35.2577 69.6988 38.4982 68.6923 41.5946C68.5218 42.1192 68.3181 42.629 68.0855 43.1216L72.0676 44.7763H72.0679ZM56.2294 48.9598C57.2045 49.4285 58.2933 49.6408 59.4256 49.5683C62.756 49.3563 66.0844 46.7439 67.8284 43.1379C67.8284 43.1379 67.8284 43.1376 67.8284 43.1373C67.8288 43.1363 67.8294 43.1356 67.8297 43.1347C68.08 42.617 68.2976 42.0787 68.4779 41.5241C69.4641 38.4897 69.2354 35.3191 67.8658 33.0432C66.865 31.38 65.3444 30.3315 63.4686 30.0108C63.0661 29.9422 62.6603 29.9082 62.2529 29.9082C60.4135 29.9082 58.5474 30.6016 56.8918 31.9196C54.2071 34.057 52.4744 37.4618 52.2574 41.0269C52.2391 41.3245 52.2333 41.6175 52.2378 41.9065C52.299 43.6991 52.9966 45.3518 54.2474 46.628C54.7928 47.1845 55.4227 47.6421 56.0982 47.9867C56.109 47.9884 56.1194 47.991 56.1295 47.9959C56.8984 48.3604 57.4265 48.4153 57.8608 48.4378C61.6526 48.6321 65.6457 45.5217 67.1471 41.2017C68.4005 37.5951 67.7643 33.9767 65.5263 31.9829C64.5755 31.136 63.1907 30.7003 61.729 30.7872C61.2504 30.8156 60.7685 30.8972 60.2967 31.0298C59.985 31.1174 59.6794 31.2258 59.3814 31.3545C60.5834 30.9723 61.7935 30.974 62.8972 31.3757C64.3676 31.9104 65.5338 33.1333 66.1813 34.8187C66.8275 36.5012 66.9014 38.507 66.3892 40.4671C65.8237 42.631 64.6247 44.5477 63.013 45.864C61.7059 46.9314 60.256 47.4896 58.8341 47.4896C58.4596 47.4896 58.0867 47.4507 57.719 47.3723C56.174 47.0424 54.8842 46.0371 54.087 44.5411C52.9475 42.4027 52.9055 39.5173 53.9744 36.8229C54.6564 35.1039 55.7279 33.6429 57.0412 32.6156C58.0004 31.7452 59.0729 31.1383 60.2358 30.8116C60.723 30.6748 61.2208 30.5905 61.7154 30.5611C62.3079 30.5258 62.8878 30.5745 63.4347 30.6983C63.4429 30.6983 63.451 30.699 63.4595 30.7009C65.3138 31.1226 66.7774 32.2106 67.6924 33.8473C68.8758 35.9642 69.034 38.8601 68.1154 41.594C66.7602 45.6288 63.1103 48.7184 59.437 48.9398C59.3157 48.947 59.194 48.9509 59.0719 48.9509C57.27 48.9509 55.4299 48.1579 54.0864 46.787C53.526 46.2154 53.0731 45.5707 52.7347 44.873C53.1112 45.9688 53.6956 46.9311 54.4719 47.7088C54.9486 48.1863 55.4839 48.5769 56.0611 48.8761L56.2284 48.9598H56.2294ZM67.3605 41.2762C65.8846 45.524 62.0391 48.6256 58.2835 48.6717C58.6636 48.7213 59.0456 48.7363 59.424 48.7135C63.0091 48.4972 66.5747 45.4723 67.902 41.5211C68.8004 38.847 68.6484 36.0194 67.4959 33.9577C67.137 33.3156 66.6886 32.7623 66.1644 32.303C67.0101 33.2486 67.5886 34.4764 67.8489 35.8963C68.1606 37.598 67.9918 39.4585 67.3602 41.2762H67.3605ZM57.99 32.2354C57.7131 32.401 57.4457 32.5872 57.187 32.7894C57.0894 32.8782 56.9927 32.9687 56.8977 33.0631C56.8749 33.0856 56.845 33.0961 56.8151 33.0954C55.6993 34.0743 54.7876 35.3877 54.1846 36.9072C53.1401 39.5401 53.1782 42.354 54.2868 44.4346C55.0632 45.8917 56.2665 46.8311 57.7668 47.1512C59.4611 47.5128 61.2738 46.9935 62.8715 45.6886C64.4236 44.4209 65.6265 42.4971 66.1719 40.4099C66.6723 38.4956 66.6011 36.5391 65.9718 34.9004C65.3483 33.277 64.2293 32.1008 62.8214 31.5887C62.2861 31.394 61.7248 31.2977 61.1505 31.2977C60.1099 31.2977 59.0283 31.6142 57.9904 32.2354H57.99ZM54.6193 48.1549C54.5152 48.0628 54.4127 47.9681 54.3135 47.8688C52.8538 46.4072 52.0524 44.3177 52.0127 41.918C52.0026 41.6292 52.0081 41.3369 52.0306 41.042C52.0306 41.041 52.0309 41.0403 52.0309 41.0393C52.0315 41.0305 52.0315 41.022 52.0322 41.0132C52.2356 37.6744 53.7467 34.4738 56.1174 32.288C54.5217 33.5057 52.7334 34.2262 50.9893 34.3396C50.8162 34.3507 50.6444 34.3565 50.4739 34.3565C49.829 34.3565 49.2046 34.2749 48.6072 34.1168C49.4281 34.7057 50.1245 35.4726 50.675 36.4042C52.1874 38.963 52.4096 42.4455 51.2695 45.7196C51.1943 45.9355 51.112 46.1485 51.0261 46.3595L54.619 48.1553L54.6193 48.1549ZM39.0493 53.5227L39.0645 53.5254C39.0743 53.527 39.0834 53.5303 39.0922 53.5342C39.9795 53.772 40.9183 53.8428 41.8723 53.7354C45.774 53.2964 49.5508 49.9694 51.057 45.6445C52.1757 42.4327 51.9603 39.0214 50.4814 36.5195C49.7522 35.2858 48.7591 34.3494 47.5545 33.7448C47.4608 33.7026 47.3678 33.6589 47.2757 33.6125C46.7007 33.3551 46.0812 33.1692 45.4216 33.0602C44.9501 32.9821 44.478 32.9435 44.0072 32.9435C41.733 32.9435 39.5002 33.846 37.6006 35.5579C34.7978 38.0837 33.1877 42.0137 33.3992 45.8143C33.4162 46.1197 33.4461 46.4196 33.4874 46.7142C33.7542 48.3823 34.5976 49.8933 35.9161 51.0358C36.6329 51.6567 37.4558 52.1437 38.3262 52.4775C38.3324 52.4785 38.3386 52.4798 38.3448 52.4821C39.1807 52.7774 39.7361 52.7983 40.191 52.795C44.1409 52.7627 48.1259 49.6424 49.6663 45.3757C51.0339 41.5881 50.306 37.5755 47.8555 35.3906C47.2301 34.8334 46.4456 34.4323 45.5752 34.2102C45.5667 34.2082 45.5586 34.206 45.5502 34.204C44.8753 34.0348 44.15 33.9721 43.4075 34.0273C42.8436 34.0698 42.279 34.1762 41.7291 34.3445C41.3113 34.4718 40.9066 34.6322 40.5151 34.8246C41.9745 34.2572 43.4866 34.1906 44.845 34.6492C46.524 35.2156 47.8432 36.5446 48.5597 38.3914C49.2654 40.2104 49.326 42.3632 48.7298 44.4533C47.5425 48.6178 44.0332 51.643 40.5395 51.643C40.3157 51.643 40.0918 51.6306 39.8689 51.6054C38.1216 51.4072 36.6098 50.4564 35.6119 48.9284C34.2814 46.8912 34.0061 44.125 34.857 41.3395C35.4693 39.335 36.5857 37.5964 38.0279 36.3451C39.0883 35.2871 40.3111 34.5408 41.6634 34.1279C42.2289 33.9551 42.8101 33.8454 43.3906 33.8016C44.0859 33.75 44.767 33.7996 45.4086 33.9398C45.4164 33.9398 45.4246 33.9404 45.4327 33.9424C47.5767 34.413 49.2501 35.6392 50.2715 37.4883C51.5405 39.7844 51.6886 42.8701 50.6682 45.7421C49.2563 49.7159 45.6296 52.7767 41.8486 53.186C41.5951 53.2134 41.3397 53.2268 41.0829 53.2268C39.1986 53.2268 37.259 52.4991 35.7684 51.2073C35.225 50.7366 34.76 50.2049 34.38 49.6264C34.855 50.5687 35.4915 51.3908 36.2717 52.0529C37.0933 52.7499 38.0373 53.2454 39.0493 53.5231V53.5227ZM49.8781 45.4528C48.384 49.5911 44.628 52.6719 40.7891 52.9933C41.1363 53.0073 41.4825 52.9972 41.8242 52.9603C45.5222 52.5602 49.0715 49.5604 50.4554 45.6657C51.4543 42.8541 51.3118 39.838 50.074 37.5977C49.6175 36.7716 49.025 36.0759 48.3166 35.519C49.3878 36.6011 50.1131 38.0412 50.4212 39.7142C50.759 41.5489 50.5712 43.5332 49.8781 45.4528ZM39.8692 35.3619C39.2682 35.6719 38.7024 36.0593 38.1801 36.5116C38.1756 36.5162 38.171 36.5205 38.1668 36.5247C38.1603 36.5316 38.1528 36.5371 38.145 36.542C36.7494 37.7633 35.6685 39.4555 35.073 41.4052C34.2417 44.1263 34.5072 46.8229 35.8009 48.8036C36.7615 50.2744 38.2153 51.1893 39.8946 51.3797C43.4924 51.788 47.2793 48.7181 48.5131 44.3906C49.7187 40.1627 48.0758 35.9779 44.7731 34.8635C44.1962 34.6688 43.59 34.5724 42.9715 34.5724C41.9449 34.5724 40.8851 34.8383 39.8696 35.3619H39.8692ZM4.19868 32.3383C9.90824 35.8375 15.5602 39.3951 21.0261 42.8355C26.0129 45.9744 31.1642 49.2158 36.3557 52.4119C36.2783 52.3511 36.2015 52.2894 36.126 52.2254C34.5771 50.9114 33.5795 48.9895 33.2642 46.7475C33.2173 46.4548 33.1874 46.1573 33.1757 45.8565C33.1757 45.8558 33.1757 45.8548 33.1757 45.8542C33.175 45.845 33.1744 45.8359 33.1737 45.8267C32.9587 41.9591 34.5973 37.9596 37.45 35.389C39.7394 33.3257 42.5055 32.4138 45.2593 32.8067L11.4642 18.0245C9.46084 17.1481 7.19679 17.1387 5.25293 17.9987C3.61851 18.7218 2.28898 19.915 1.40784 21.4495C0.964661 22.2213 0.650337 23.0575 0.474304 23.9345C-0.180702 27.1949 1.31608 30.5722 4.19836 32.339L4.19868 32.3383Z" fill="#2A2A2A"/>
</svg>
